<svg width="151" height="22" viewBox="0 0 151 22" fill="none" xmlns="http://www.w3.org/2000/svg">
<path d="M43.2734 3.58594V8.625H42.5469V2.77344H43.2109L43.2734 3.58594ZM46.1211 4.85156V4.93359C46.1211 5.24089 46.0846 5.52604 46.0117 5.78906C45.9388 6.04948 45.832 6.27604 45.6914 6.46875C45.5534 6.66146 45.3828 6.8112 45.1797 6.91797C44.9766 7.02474 44.7435 7.07812 44.4805 7.07812C44.2122 7.07812 43.9753 7.03385 43.7695 6.94531C43.5638 6.85677 43.3893 6.72786 43.2461 6.55859C43.1029 6.38932 42.9883 6.1862 42.9023 5.94922C42.819 5.71224 42.7617 5.44531 42.7305 5.14844V4.71094C42.7617 4.39844 42.8203 4.11849 42.9062 3.87109C42.9922 3.6237 43.1055 3.41276 43.2461 3.23828C43.3893 3.0612 43.5625 2.92708 43.7656 2.83594C43.9688 2.74219 44.2031 2.69531 44.4688 2.69531C44.7344 2.69531 44.9701 2.7474 45.1758 2.85156C45.3815 2.95312 45.5547 3.09896 45.6953 3.28906C45.8359 3.47917 45.9414 3.70703 46.0117 3.97266C46.0846 4.23568 46.1211 4.52865 46.1211 4.85156ZM45.3945 4.93359V4.85156C45.3945 4.64062 45.3724 4.44271 45.3281 4.25781C45.2839 4.07031 45.2148 3.90625 45.1211 3.76562C45.0299 3.6224 44.9128 3.51042 44.7695 3.42969C44.6263 3.34635 44.4557 3.30469 44.2578 3.30469C44.0755 3.30469 43.9167 3.33594 43.7812 3.39844C43.6484 3.46094 43.5352 3.54557 43.4414 3.65234C43.3477 3.75651 43.2708 3.8763 43.2109 4.01172C43.1536 4.14453 43.1107 4.28255 43.082 4.42578V5.4375C43.1341 5.61979 43.207 5.79167 43.3008 5.95312C43.3945 6.11198 43.5195 6.24089 43.6758 6.33984C43.832 6.4362 44.0286 6.48438 44.2656 6.48438C44.4609 6.48438 44.6289 6.44401 44.7695 6.36328C44.9128 6.27995 45.0299 6.16667 45.1211 6.02344C45.2148 5.88021 45.2839 5.71615 45.3281 5.53125C45.3724 5.34375 45.3945 5.14453 45.3945 4.93359ZM47.7656 3.4375V7H47.043V2.77344H47.7461L47.7656 3.4375ZM49.0859 2.75L49.082 3.42188C49.0221 3.40885 48.9648 3.40104 48.9102 3.39844C48.8581 3.39323 48.7982 3.39062 48.7305 3.39062C48.5638 3.39062 48.4167 3.41667 48.2891 3.46875C48.1615 3.52083 48.0534 3.59375 47.9648 3.6875C47.8763 3.78125 47.806 3.89323 47.7539 4.02344C47.7044 4.15104 47.6719 4.29167 47.6562 4.44531L47.4531 4.5625C47.4531 4.30729 47.4779 4.06771 47.5273 3.84375C47.5794 3.61979 47.6589 3.42188 47.7656 3.25C47.8724 3.07552 48.0078 2.9401 48.1719 2.84375C48.3385 2.74479 48.5365 2.69531 48.7656 2.69531C48.8177 2.69531 48.8776 2.70182 48.9453 2.71484C49.013 2.72526 49.0599 2.73698 49.0859 2.75ZM49.4844 4.93359V4.84375C49.4844 4.53906 49.5286 4.25651 49.6172 3.99609C49.7057 3.73307 49.8333 3.50521 50 3.3125C50.1667 3.11719 50.3685 2.96615 50.6055 2.85938C50.8424 2.75 51.1081 2.69531 51.4023 2.69531C51.6992 2.69531 51.9661 2.75 52.2031 2.85938C52.4427 2.96615 52.6458 3.11719 52.8125 3.3125C52.9818 3.50521 53.1107 3.73307 53.1992 3.99609C53.2878 4.25651 53.332 4.53906 53.332 4.84375V4.93359C53.332 5.23828 53.2878 5.52083 53.1992 5.78125C53.1107 6.04167 52.9818 6.26953 52.8125 6.46484C52.6458 6.65755 52.444 6.80859 52.207 6.91797C51.9727 7.02474 51.707 7.07812 51.4102 7.07812C51.1133 7.07812 50.8464 7.02474 50.6094 6.91797C50.3724 6.80859 50.1693 6.65755 50 6.46484C49.8333 6.26953 49.7057 6.04167 49.6172 5.78125C49.5286 5.52083 49.4844 5.23828 49.4844 4.93359ZM50.207 4.84375V4.93359C50.207 5.14453 50.2318 5.34375 50.2812 5.53125C50.3307 5.71615 50.4049 5.88021 50.5039 6.02344C50.6055 6.16667 50.7318 6.27995 50.8828 6.36328C51.0339 6.44401 51.2096 6.48438 51.4102 6.48438C51.6081 6.48438 51.7812 6.44401 51.9297 6.36328C52.0807 6.27995 52.2057 6.16667 52.3047 6.02344C52.4036 5.88021 52.4779 5.71615 52.5273 5.53125C52.5794 5.34375 52.6055 5.14453 52.6055 4.93359V4.84375C52.6055 4.63542 52.5794 4.4388 52.5273 4.25391C52.4779 4.06641 52.4023 3.90104 52.3008 3.75781C52.2018 3.61198 52.0768 3.4974 51.9258 3.41406C51.7773 3.33073 51.6029 3.28906 51.4023 3.28906C51.2044 3.28906 51.0299 3.33073 50.8789 3.41406C50.7305 3.4974 50.6055 3.61198 50.5039 3.75781C50.4049 3.90104 50.3307 4.06641 50.2812 4.25391C50.2318 4.4388 50.207 4.63542 50.207 4.84375ZM54.9609 3.67578V7H54.2383V2.77344H54.9219L54.9609 3.67578ZM54.7891 4.72656L54.4883 4.71484C54.4909 4.42578 54.5339 4.15885 54.6172 3.91406C54.7005 3.66667 54.8177 3.45182 54.9688 3.26953C55.1198 3.08724 55.2995 2.94661 55.5078 2.84766C55.7188 2.74609 55.9518 2.69531 56.207 2.69531C56.4154 2.69531 56.6029 2.72396 56.7695 2.78125C56.9362 2.83594 57.0781 2.92448 57.1953 3.04688C57.3151 3.16927 57.4062 3.32812 57.4688 3.52344C57.5312 3.71615 57.5625 3.95182 57.5625 4.23047V7H56.8359V4.22266C56.8359 4.0013 56.8034 3.82422 56.7383 3.69141C56.6732 3.55599 56.5781 3.45833 56.4531 3.39844C56.3281 3.33594 56.1745 3.30469 55.9922 3.30469C55.8125 3.30469 55.6484 3.34245 55.5 3.41797C55.3542 3.49349 55.2279 3.59766 55.1211 3.73047C55.0169 3.86328 54.9349 4.01562 54.875 4.1875C54.8177 4.35677 54.7891 4.53646 54.7891 4.72656ZM58.4688 4.93359V4.84375C58.4688 4.53906 58.513 4.25651 58.6016 3.99609C58.6901 3.73307 58.8177 3.50521 58.9844 3.3125C59.151 3.11719 59.3529 2.96615 59.5898 2.85938C59.8268 2.75 60.0924 2.69531 60.3867 2.69531C60.6836 2.69531 60.9505 2.75 61.1875 2.85938C61.4271 2.96615 61.6302 3.11719 61.7969 3.3125C61.9661 3.50521 62.0951 3.73307 62.1836 3.99609C62.2721 4.25651 62.3164 4.53906 62.3164 4.84375V4.93359C62.3164 5.23828 62.2721 5.52083 62.1836 5.78125C62.0951 6.04167 61.9661 6.26953 61.7969 6.46484C61.6302 6.65755 61.4284 6.80859 61.1914 6.91797C60.957 7.02474 60.6914 7.07812 60.3945 7.07812C60.0977 7.07812 59.8307 7.02474 59.5938 6.91797C59.3568 6.80859 59.1536 6.65755 58.9844 6.46484C58.8177 6.26953 58.6901 6.04167 58.6016 5.78125C58.513 5.52083 58.4688 5.23828 58.4688 4.93359ZM59.1914 4.84375V4.93359C59.1914 5.14453 59.2161 5.34375 59.2656 5.53125C59.3151 5.71615 59.3893 5.88021 59.4883 6.02344C59.5898 6.16667 59.7161 6.27995 59.8672 6.36328C60.0182 6.44401 60.194 6.48438 60.3945 6.48438C60.5924 6.48438 60.7656 6.44401 60.9141 6.36328C61.0651 6.27995 61.1901 6.16667 61.2891 6.02344C61.388 5.88021 61.4622 5.71615 61.5117 5.53125C61.5638 5.34375 61.5898 5.14453 61.5898 4.93359V4.84375C61.5898 4.63542 61.5638 4.4388 61.5117 4.25391C61.4622 4.06641 61.3867 3.90104 61.2852 3.75781C61.1862 3.61198 61.0612 3.4974 60.9102 3.41406C60.7617 3.33073 60.5872 3.28906 60.3867 3.28906C60.1888 3.28906 60.0143 3.33073 59.8633 3.41406C59.7148 3.4974 59.5898 3.61198 59.4883 3.75781C59.3893 3.90104 59.3151 4.06641 59.2656 4.25391C59.2161 4.4388 59.1914 4.63542 59.1914 4.84375ZM65.8086 6.02344V2.77344H66.5352V7H65.8438L65.8086 6.02344ZM65.9453 5.13281L66.2461 5.125C66.2461 5.40625 66.2161 5.66667 66.1562 5.90625C66.099 6.14323 66.0052 6.34896 65.875 6.52344C65.7448 6.69792 65.5742 6.83464 65.3633 6.93359C65.1523 7.02995 64.8958 7.07812 64.5938 7.07812C64.388 7.07812 64.1992 7.04818 64.0273 6.98828C63.8581 6.92839 63.7122 6.83594 63.5898 6.71094C63.4674 6.58594 63.3724 6.42318 63.3047 6.22266C63.2396 6.02214 63.207 5.78125 63.207 5.5V2.77344H63.9297V5.50781C63.9297 5.69792 63.9505 5.85547 63.9922 5.98047C64.0365 6.10286 64.0951 6.20052 64.168 6.27344C64.2435 6.34375 64.3268 6.39323 64.418 6.42188C64.5117 6.45052 64.6081 6.46484 64.707 6.46484C65.0143 6.46484 65.2578 6.40625 65.4375 6.28906C65.6172 6.16927 65.7461 6.00911 65.8242 5.80859C65.9049 5.60547 65.9453 5.38021 65.9453 5.13281ZM68.3594 3.67578V7H67.6367V2.77344H68.3203L68.3594 3.67578ZM68.1875 4.72656L67.8867 4.71484C67.8893 4.42578 67.9323 4.15885 68.0156 3.91406C68.099 3.66667 68.2161 3.45182 68.3672 3.26953C68.5182 3.08724 68.6979 2.94661 68.9062 2.84766C69.1172 2.74609 69.3503 2.69531 69.6055 2.69531C69.8138 2.69531 70.0013 2.72396 70.168 2.78125C70.3346 2.83594 70.4766 2.92448 70.5938 3.04688C70.7135 3.16927 70.8047 3.32812 70.8672 3.52344C70.9297 3.71615 70.9609 3.95182 70.9609 4.23047V7H70.2344V4.22266C70.2344 4.0013 70.2018 3.82422 70.1367 3.69141C70.0716 3.55599 69.9766 3.45833 69.8516 3.39844C69.7266 3.33594 69.5729 3.30469 69.3906 3.30469C69.2109 3.30469 69.0469 3.34245 68.8984 3.41797C68.7526 3.49349 68.6263 3.59766 68.5195 3.73047C68.4154 3.86328 68.3333 4.01562 68.2734 4.1875C68.2161 4.35677 68.1875 4.53646 68.1875 4.72656ZM73.75 6.48438C73.9219 6.48438 74.0807 6.44922 74.2266 6.37891C74.3724 6.30859 74.4922 6.21224 74.5859 6.08984C74.6797 5.96484 74.7331 5.82292 74.7461 5.66406H75.4336C75.4206 5.91406 75.3359 6.14714 75.1797 6.36328C75.026 6.57682 74.8242 6.75 74.5742 6.88281C74.3242 7.01302 74.0495 7.07812 73.75 7.07812C73.4323 7.07812 73.1549 7.02214 72.918 6.91016C72.6836 6.79818 72.4883 6.64453 72.332 6.44922C72.1784 6.25391 72.0625 6.02995 71.9844 5.77734C71.9089 5.52214 71.8711 5.2526 71.8711 4.96875V4.80469C71.8711 4.52083 71.9089 4.2526 71.9844 4C72.0625 3.74479 72.1784 3.51953 72.332 3.32422C72.4883 3.12891 72.6836 2.97526 72.918 2.86328C73.1549 2.7513 73.4323 2.69531 73.75 2.69531C74.0807 2.69531 74.3698 2.76302 74.6172 2.89844C74.8646 3.03125 75.0586 3.21354 75.1992 3.44531C75.3424 3.67448 75.4206 3.9349 75.4336 4.22656H74.7461C74.7331 4.05208 74.6836 3.89453 74.5977 3.75391C74.5143 3.61328 74.3997 3.5013 74.2539 3.41797C74.1107 3.33203 73.9427 3.28906 73.75 3.28906C73.5286 3.28906 73.3424 3.33333 73.1914 3.42188C73.043 3.50781 72.9245 3.625 72.8359 3.77344C72.75 3.91927 72.6875 4.08203 72.6484 4.26172C72.612 4.4388 72.5938 4.61979 72.5938 4.80469V4.96875C72.5938 5.15365 72.612 5.33594 72.6484 5.51562C72.6849 5.69531 72.7461 5.85807 72.832 6.00391C72.9206 6.14974 73.0391 6.26693 73.1875 6.35547C73.3385 6.44141 73.526 6.48438 73.75 6.48438ZM78 7.07812C77.7057 7.07812 77.4388 7.02865 77.1992 6.92969C76.9622 6.82812 76.7578 6.6862 76.5859 6.50391C76.4167 6.32161 76.2865 6.10547 76.1953 5.85547C76.1042 5.60547 76.0586 5.33203 76.0586 5.03516V4.87109C76.0586 4.52734 76.1094 4.22135 76.2109 3.95312C76.3125 3.68229 76.4505 3.45312 76.625 3.26562C76.7995 3.07812 76.9974 2.9362 77.2188 2.83984C77.4401 2.74349 77.6693 2.69531 77.9062 2.69531C78.2083 2.69531 78.4688 2.7474 78.6875 2.85156C78.9089 2.95573 79.0898 3.10156 79.2305 3.28906C79.3711 3.47396 79.4753 3.69271 79.543 3.94531C79.6107 4.19531 79.6445 4.46875 79.6445 4.76562V5.08984H76.4883V4.5H78.9219V4.44531C78.9115 4.25781 78.8724 4.07552 78.8047 3.89844C78.7396 3.72135 78.6354 3.57552 78.4922 3.46094C78.349 3.34635 78.1536 3.28906 77.9062 3.28906C77.7422 3.28906 77.5911 3.32422 77.4531 3.39453C77.3151 3.46224 77.1966 3.5638 77.0977 3.69922C76.9987 3.83464 76.9219 4 76.8672 4.19531C76.8125 4.39062 76.7852 4.61589 76.7852 4.87109V5.03516C76.7852 5.23568 76.8125 5.42448 76.8672 5.60156C76.9245 5.77604 77.0065 5.92969 77.1133 6.0625C77.2227 6.19531 77.3542 6.29948 77.5078 6.375C77.6641 6.45052 77.8411 6.48828 78.0391 6.48828C78.2943 6.48828 78.5104 6.4362 78.6875 6.33203C78.8646 6.22786 79.0195 6.08854 79.1523 5.91406L79.5898 6.26172C79.4987 6.39974 79.3828 6.53125 79.2422 6.65625C79.1016 6.78125 78.9284 6.88281 78.7227 6.96094C78.5195 7.03906 78.2786 7.07812 78 7.07812ZM83.1523 6.17969V1H83.8789V7H83.2148L83.1523 6.17969ZM80.3086 4.93359V4.85156C80.3086 4.52865 80.3477 4.23568 80.4258 3.97266C80.5065 3.70703 80.6198 3.47917 80.7656 3.28906C80.9141 3.09896 81.0898 2.95312 81.293 2.85156C81.4987 2.7474 81.7279 2.69531 81.9805 2.69531C82.2461 2.69531 82.4779 2.74219 82.6758 2.83594C82.8763 2.92708 83.0456 3.0612 83.1836 3.23828C83.3242 3.41276 83.4349 3.6237 83.5156 3.87109C83.5964 4.11849 83.6523 4.39844 83.6836 4.71094V5.07031C83.6549 5.38021 83.599 5.65885 83.5156 5.90625C83.4349 6.15365 83.3242 6.36458 83.1836 6.53906C83.0456 6.71354 82.8763 6.84766 82.6758 6.94141C82.4753 7.03255 82.2409 7.07812 81.9727 7.07812C81.7253 7.07812 81.4987 7.02474 81.293 6.91797C81.0898 6.8112 80.9141 6.66146 80.7656 6.46875C80.6198 6.27604 80.5065 6.04948 80.4258 5.78906C80.3477 5.52604 80.3086 5.24089 80.3086 4.93359ZM81.0352 4.85156V4.93359C81.0352 5.14453 81.056 5.34245 81.0977 5.52734C81.1419 5.71224 81.2096 5.875 81.3008 6.01562C81.3919 6.15625 81.5078 6.26693 81.6484 6.34766C81.7891 6.42578 81.957 6.46484 82.1523 6.46484C82.3919 6.46484 82.5885 6.41406 82.7422 6.3125C82.8984 6.21094 83.0234 6.07682 83.1172 5.91016C83.2109 5.74349 83.2839 5.5625 83.3359 5.36719V4.42578C83.3047 4.28255 83.2591 4.14453 83.1992 4.01172C83.1419 3.8763 83.0664 3.75651 82.9727 3.65234C82.8815 3.54557 82.7682 3.46094 82.6328 3.39844C82.5 3.33594 82.3424 3.30469 82.1602 3.30469C81.9622 3.30469 81.7917 3.34635 81.6484 3.42969C81.5078 3.51042 81.3919 3.6224 81.3008 3.76562C81.2096 3.90625 81.1419 4.07031 81.0977 4.25781C81.056 4.44271 81.0352 4.64062 81.0352 4.85156ZM89.4492 5.87891C89.4492 5.77474 89.4258 5.67839 89.3789 5.58984C89.3346 5.4987 89.2422 5.41667 89.1016 5.34375C88.9635 5.26823 88.7552 5.20312 88.4766 5.14844C88.2422 5.09896 88.0299 5.04036 87.8398 4.97266C87.6523 4.90495 87.4922 4.82292 87.3594 4.72656C87.2292 4.63021 87.1289 4.51693 87.0586 4.38672C86.9883 4.25651 86.9531 4.10417 86.9531 3.92969C86.9531 3.76302 86.9896 3.60547 87.0625 3.45703C87.138 3.30859 87.2435 3.17708 87.3789 3.0625C87.5169 2.94792 87.6823 2.85807 87.875 2.79297C88.0677 2.72786 88.2826 2.69531 88.5195 2.69531C88.8581 2.69531 89.1471 2.75521 89.3867 2.875C89.6263 2.99479 89.8099 3.15495 89.9375 3.35547C90.0651 3.55339 90.1289 3.77344 90.1289 4.01562H89.4062C89.4062 3.89844 89.3711 3.78516 89.3008 3.67578C89.2331 3.5638 89.1328 3.47135 89 3.39844C88.8698 3.32552 88.7096 3.28906 88.5195 3.28906C88.319 3.28906 88.1562 3.32031 88.0312 3.38281C87.9089 3.44271 87.819 3.51953 87.7617 3.61328C87.707 3.70703 87.6797 3.80599 87.6797 3.91016C87.6797 3.98828 87.6927 4.05859 87.7188 4.12109C87.7474 4.18099 87.7969 4.23698 87.8672 4.28906C87.9375 4.33854 88.0365 4.38542 88.1641 4.42969C88.2917 4.47396 88.4544 4.51823 88.6523 4.5625C88.9987 4.64062 89.2839 4.73438 89.5078 4.84375C89.7318 4.95312 89.8984 5.08724 90.0078 5.24609C90.1172 5.40495 90.1719 5.59766 90.1719 5.82422C90.1719 6.00911 90.1328 6.17839 90.0547 6.33203C89.9792 6.48568 89.8685 6.61849 89.7227 6.73047C89.5794 6.83984 89.4076 6.92578 89.207 6.98828C89.0091 7.04818 88.7865 7.07812 88.5391 7.07812C88.1667 7.07812 87.8516 7.01172 87.5938 6.87891C87.3359 6.74609 87.1406 6.57422 87.0078 6.36328C86.875 6.15234 86.8086 5.92969 86.8086 5.69531H87.5352C87.5456 5.89323 87.6029 6.05078 87.707 6.16797C87.8112 6.28255 87.9388 6.36458 88.0898 6.41406C88.2409 6.46094 88.3906 6.48438 88.5391 6.48438C88.737 6.48438 88.9023 6.45833 89.0352 6.40625C89.1706 6.35417 89.2734 6.28255 89.3438 6.19141C89.4141 6.10026 89.4492 5.99609 89.4492 5.87891ZM90.9297 4.93359V4.84375C90.9297 4.53906 90.974 4.25651 91.0625 3.99609C91.151 3.73307 91.2786 3.50521 91.4453 3.3125C91.612 3.11719 91.8138 2.96615 92.0508 2.85938C92.2878 2.75 92.5534 2.69531 92.8477 2.69531C93.1445 2.69531 93.4115 2.75 93.6484 2.85938C93.888 2.96615 94.0911 3.11719 94.2578 3.3125C94.4271 3.50521 94.556 3.73307 94.6445 3.99609C94.7331 4.25651 94.7773 4.53906 94.7773 4.84375V4.93359C94.7773 5.23828 94.7331 5.52083 94.6445 5.78125C94.556 6.04167 94.4271 6.26953 94.2578 6.46484C94.0911 6.65755 93.8893 6.80859 93.6523 6.91797C93.418 7.02474 93.1523 7.07812 92.8555 7.07812C92.5586 7.07812 92.2917 7.02474 92.0547 6.91797C91.8177 6.80859 91.6146 6.65755 91.4453 6.46484C91.2786 6.26953 91.151 6.04167 91.0625 5.78125C90.974 5.52083 90.9297 5.23828 90.9297 4.93359ZM91.6523 4.84375V4.93359C91.6523 5.14453 91.6771 5.34375 91.7266 5.53125C91.776 5.71615 91.8503 5.88021 91.9492 6.02344C92.0508 6.16667 92.1771 6.27995 92.3281 6.36328C92.4792 6.44401 92.6549 6.48438 92.8555 6.48438C93.0534 6.48438 93.2266 6.44401 93.375 6.36328C93.526 6.27995 93.651 6.16667 93.75 6.02344C93.849 5.88021 93.9232 5.71615 93.9727 5.53125C94.0247 5.34375 94.0508 5.14453 94.0508 4.93359V4.84375C94.0508 4.63542 94.0247 4.4388 93.9727 4.25391C93.9232 4.06641 93.8477 3.90104 93.7461 3.75781C93.6471 3.61198 93.5221 3.4974 93.3711 3.41406C93.2227 3.33073 93.0482 3.28906 92.8477 3.28906C92.6497 3.28906 92.4753 3.33073 92.3242 3.41406C92.1758 3.4974 92.0508 3.61198 91.9492 3.75781C91.8503 3.90104 91.776 4.06641 91.7266 4.25391C91.6771 4.4388 91.6523 4.63542 91.6523 4.84375ZM96.4062 3.4375V7H95.6836V2.77344H96.3867L96.4062 3.4375ZM97.7266 2.75L97.7227 3.42188C97.6628 3.40885 97.6055 3.40104 97.5508 3.39844C97.4987 3.39323 97.4388 3.39062 97.3711 3.39062C97.2044 3.39062 97.0573 3.41667 96.9297 3.46875C96.8021 3.52083 96.694 3.59375 96.6055 3.6875C96.5169 3.78125 96.4466 3.89323 96.3945 4.02344C96.3451 4.15104 96.3125 4.29167 96.2969 4.44531L96.0938 4.5625C96.0938 4.30729 96.1185 4.06771 96.168 3.84375C96.2201 3.61979 96.2995 3.42188 96.4062 3.25C96.513 3.07552 96.6484 2.9401 96.8125 2.84375C96.9792 2.74479 97.1771 2.69531 97.4062 2.69531C97.4583 2.69531 97.5182 2.70182 97.5859 2.71484C97.6536 2.72526 97.7005 2.73698 97.7266 2.75ZM100.359 2.77344V3.32812H98.0742V2.77344H100.359ZM98.8477 1.74609H99.5703V5.95312C99.5703 6.09635 99.5924 6.20443 99.6367 6.27734C99.681 6.35026 99.7383 6.39844 99.8086 6.42188C99.8789 6.44531 99.9544 6.45703 100.035 6.45703C100.095 6.45703 100.158 6.45182 100.223 6.44141C100.29 6.42839 100.341 6.41797 100.375 6.41016L100.379 7C100.322 7.01823 100.246 7.03516 100.152 7.05078C100.061 7.06901 99.9505 7.07812 99.8203 7.07812C99.6432 7.07812 99.4805 7.04297 99.332 6.97266C99.1836 6.90234 99.0651 6.78516 98.9766 6.62109C98.8906 6.45443 98.8477 6.23047 98.8477 5.94922V1.74609ZM103 4.93359V4.84375C103 4.53906 103.044 4.25651 103.133 3.99609C103.221 3.73307 103.349 3.50521 103.516 3.3125C103.682 3.11719 103.884 2.96615 104.121 2.85938C104.358 2.75 104.624 2.69531 104.918 2.69531C105.215 2.69531 105.482 2.75 105.719 2.85938C105.958 2.96615 106.161 3.11719 106.328 3.3125C106.497 3.50521 106.626 3.73307 106.715 3.99609C106.803 4.25651 106.848 4.53906 106.848 4.84375V4.93359C106.848 5.23828 106.803 5.52083 106.715 5.78125C106.626 6.04167 106.497 6.26953 106.328 6.46484C106.161 6.65755 105.96 6.80859 105.723 6.91797C105.488 7.02474 105.223 7.07812 104.926 7.07812C104.629 7.07812 104.362 7.02474 104.125 6.91797C103.888 6.80859 103.685 6.65755 103.516 6.46484C103.349 6.26953 103.221 6.04167 103.133 5.78125C103.044 5.52083 103 5.23828 103 4.93359ZM103.723 4.84375V4.93359C103.723 5.14453 103.747 5.34375 103.797 5.53125C103.846 5.71615 103.921 5.88021 104.02 6.02344C104.121 6.16667 104.247 6.27995 104.398 6.36328C104.549 6.44401 104.725 6.48438 104.926 6.48438C105.124 6.48438 105.297 6.44401 105.445 6.36328C105.596 6.27995 105.721 6.16667 105.82 6.02344C105.919 5.88021 105.993 5.71615 106.043 5.53125C106.095 5.34375 106.121 5.14453 106.121 4.93359V4.84375C106.121 4.63542 106.095 4.4388 106.043 4.25391C105.993 4.06641 105.918 3.90104 105.816 3.75781C105.717 3.61198 105.592 3.4974 105.441 3.41406C105.293 3.33073 105.118 3.28906 104.918 3.28906C104.72 3.28906 104.546 3.33073 104.395 3.41406C104.246 3.4974 104.121 3.61198 104.02 3.75781C103.921 3.90104 103.846 4.06641 103.797 4.25391C103.747 4.4388 103.723 4.63542 103.723 4.84375ZM108.832 7H108.109V2.32812C108.109 2.02344 108.164 1.76693 108.273 1.55859C108.385 1.34766 108.546 1.1888 108.754 1.08203C108.962 0.972656 109.21 0.917969 109.496 0.917969C109.579 0.917969 109.663 0.923177 109.746 0.933594C109.832 0.94401 109.915 0.959635 109.996 0.980469L109.957 1.57031C109.902 1.55729 109.84 1.54818 109.77 1.54297C109.702 1.53776 109.634 1.53516 109.566 1.53516C109.413 1.53516 109.28 1.56641 109.168 1.62891C109.059 1.6888 108.975 1.77734 108.918 1.89453C108.861 2.01172 108.832 2.15625 108.832 2.32812V7ZM109.73 2.77344V3.32812H107.441V2.77344H109.73ZM113.305 1V7H112.578V1H113.305ZM115.25 2.77344V7H114.523V2.77344H115.25ZM114.469 1.65234C114.469 1.53516 114.504 1.4362 114.574 1.35547C114.647 1.27474 114.754 1.23438 114.895 1.23438C115.033 1.23438 115.138 1.27474 115.211 1.35547C115.286 1.4362 115.324 1.53516 115.324 1.65234C115.324 1.76432 115.286 1.86068 115.211 1.94141C115.138 2.01953 115.033 2.05859 114.895 2.05859C114.754 2.05859 114.647 2.01953 114.574 1.94141C114.504 1.86068 114.469 1.76432 114.469 1.65234ZM117.137 1V7H116.41V1H117.137ZM119.719 2.77344L117.875 4.74609L116.844 5.81641L116.785 5.04688L117.523 4.16406L118.836 2.77344H119.719ZM119.059 7L117.551 4.98438L117.926 4.33984L119.91 7H119.059ZM122.141 7.07812C121.846 7.07812 121.579 7.02865 121.34 6.92969C121.103 6.82812 120.898 6.6862 120.727 6.50391C120.557 6.32161 120.427 6.10547 120.336 5.85547C120.245 5.60547 120.199 5.33203 120.199 5.03516V4.87109C120.199 4.52734 120.25 4.22135 120.352 3.95312C120.453 3.68229 120.591 3.45312 120.766 3.26562C120.94 3.07812 121.138 2.9362 121.359 2.83984C121.581 2.74349 121.81 2.69531 122.047 2.69531C122.349 2.69531 122.609 2.7474 122.828 2.85156C123.049 2.95573 123.23 3.10156 123.371 3.28906C123.512 3.47396 123.616 3.69271 123.684 3.94531C123.751 4.19531 123.785 4.46875 123.785 4.76562V5.08984H120.629V4.5H123.062V4.44531C123.052 4.25781 123.013 4.07552 122.945 3.89844C122.88 3.72135 122.776 3.57552 122.633 3.46094C122.49 3.34635 122.294 3.28906 122.047 3.28906C121.883 3.28906 121.732 3.32422 121.594 3.39453C121.456 3.46224 121.337 3.5638 121.238 3.69922C121.139 3.83464 121.062 4 121.008 4.19531C120.953 4.39062 120.926 4.61589 120.926 4.87109V5.03516C120.926 5.23568 120.953 5.42448 121.008 5.60156C121.065 5.77604 121.147 5.92969 121.254 6.0625C121.363 6.19531 121.495 6.29948 121.648 6.375C121.805 6.45052 121.982 6.48828 122.18 6.48828C122.435 6.48828 122.651 6.4362 122.828 6.33203C123.005 6.22786 123.16 6.08854 123.293 5.91406L123.73 6.26172C123.639 6.39974 123.523 6.53125 123.383 6.65625C123.242 6.78125 123.069 6.88281 122.863 6.96094C122.66 7.03906 122.419 7.07812 122.141 7.07812ZM126.473 2.80859V2.33594C126.473 2.17708 126.499 2.01172 126.551 1.83984C126.605 1.66536 126.684 1.4987 126.785 1.33984C126.887 1.17839 127.009 1.03906 127.152 0.921875L127.562 1.20703C127.443 1.37891 127.35 1.55599 127.285 1.73828C127.22 1.91797 127.188 2.11328 127.188 2.32422V2.80859H126.473ZM127.703 2.80859V2.33594C127.703 2.17708 127.729 2.01172 127.781 1.83984C127.836 1.66536 127.914 1.4987 128.016 1.33984C128.117 1.17839 128.24 1.03906 128.383 0.921875L128.793 1.20703C128.673 1.37891 128.581 1.55599 128.516 1.73828C128.451 1.91797 128.418 2.11328 128.418 2.32422V2.80859H127.703ZM130.898 6.48438C131.07 6.48438 131.229 6.44922 131.375 6.37891C131.521 6.30859 131.641 6.21224 131.734 6.08984C131.828 5.96484 131.882 5.82292 131.895 5.66406H132.582C132.569 5.91406 132.484 6.14714 132.328 6.36328C132.174 6.57682 131.973 6.75 131.723 6.88281C131.473 7.01302 131.198 7.07812 130.898 7.07812C130.581 7.07812 130.303 7.02214 130.066 6.91016C129.832 6.79818 129.637 6.64453 129.48 6.44922C129.327 6.25391 129.211 6.02995 129.133 5.77734C129.057 5.52214 129.02 5.2526 129.02 4.96875V4.80469C129.02 4.52083 129.057 4.2526 129.133 4C129.211 3.74479 129.327 3.51953 129.48 3.32422C129.637 3.12891 129.832 2.97526 130.066 2.86328C130.303 2.7513 130.581 2.69531 130.898 2.69531C131.229 2.69531 131.518 2.76302 131.766 2.89844C132.013 3.03125 132.207 3.21354 132.348 3.44531C132.491 3.67448 132.569 3.9349 132.582 4.22656H131.895C131.882 4.05208 131.832 3.89453 131.746 3.75391C131.663 3.61328 131.548 3.5013 131.402 3.41797C131.259 3.33203 131.091 3.28906 130.898 3.28906C130.677 3.28906 130.491 3.33333 130.34 3.42188C130.191 3.50781 130.073 3.625 129.984 3.77344C129.898 3.91927 129.836 4.08203 129.797 4.26172C129.76 4.4388 129.742 4.61979 129.742 4.80469V4.96875C129.742 5.15365 129.76 5.33594 129.797 5.51562C129.833 5.69531 129.895 5.85807 129.98 6.00391C130.069 6.14974 130.188 6.26693 130.336 6.35547C130.487 6.44141 130.674 6.48438 130.898 6.48438ZM134.117 1V7H133.395V1H134.117ZM133.945 4.72656L133.645 4.71484C133.647 4.42578 133.69 4.15885 133.773 3.91406C133.857 3.66667 133.974 3.45182 134.125 3.26953C134.276 3.08724 134.456 2.94661 134.664 2.84766C134.875 2.74609 135.108 2.69531 135.363 2.69531C135.572 2.69531 135.759 2.72396 135.926 2.78125C136.092 2.83594 136.234 2.92448 136.352 3.04688C136.471 3.16927 136.562 3.32812 136.625 3.52344C136.688 3.71615 136.719 3.95182 136.719 4.23047V7H135.992V4.22266C135.992 4.0013 135.96 3.82422 135.895 3.69141C135.829 3.55599 135.734 3.45833 135.609 3.39844C135.484 3.33594 135.331 3.30469 135.148 3.30469C134.969 3.30469 134.805 3.34245 134.656 3.41797C134.51 3.49349 134.384 3.59766 134.277 3.73047C134.173 3.86328 134.091 4.01562 134.031 4.1875C133.974 4.35677 133.945 4.53646 133.945 4.72656ZM140.293 6.27734V4.10156C140.293 3.9349 140.259 3.79036 140.191 3.66797C140.126 3.54297 140.027 3.44661 139.895 3.37891C139.762 3.3112 139.598 3.27734 139.402 3.27734C139.22 3.27734 139.06 3.30859 138.922 3.37109C138.786 3.43359 138.68 3.51562 138.602 3.61719C138.526 3.71875 138.488 3.82812 138.488 3.94531H137.766C137.766 3.79427 137.805 3.64453 137.883 3.49609C137.961 3.34766 138.073 3.21354 138.219 3.09375C138.367 2.97135 138.544 2.875 138.75 2.80469C138.958 2.73177 139.19 2.69531 139.445 2.69531C139.753 2.69531 140.023 2.7474 140.258 2.85156C140.495 2.95573 140.68 3.11328 140.812 3.32422C140.948 3.53255 141.016 3.79427 141.016 4.10938V6.07812C141.016 6.21875 141.027 6.36849 141.051 6.52734C141.077 6.6862 141.115 6.82292 141.164 6.9375V7H140.41C140.374 6.91667 140.345 6.80599 140.324 6.66797C140.303 6.52734 140.293 6.39714 140.293 6.27734ZM140.418 4.4375L140.426 4.94531H139.695C139.49 4.94531 139.306 4.96224 139.145 4.99609C138.983 5.02734 138.848 5.07552 138.738 5.14062C138.629 5.20573 138.546 5.28776 138.488 5.38672C138.431 5.48307 138.402 5.59635 138.402 5.72656C138.402 5.85938 138.432 5.98047 138.492 6.08984C138.552 6.19922 138.642 6.28646 138.762 6.35156C138.884 6.41406 139.034 6.44531 139.211 6.44531C139.432 6.44531 139.628 6.39844 139.797 6.30469C139.966 6.21094 140.1 6.09635 140.199 5.96094C140.301 5.82552 140.355 5.69401 140.363 5.56641L140.672 5.91406C140.654 6.02344 140.604 6.14453 140.523 6.27734C140.443 6.41016 140.335 6.53776 140.199 6.66016C140.066 6.77995 139.908 6.88021 139.723 6.96094C139.54 7.03906 139.335 7.07812 139.105 7.07812C138.819 7.07812 138.568 7.02214 138.352 6.91016C138.138 6.79818 137.971 6.64844 137.852 6.46094C137.734 6.27083 137.676 6.05859 137.676 5.82422C137.676 5.59766 137.72 5.39844 137.809 5.22656C137.897 5.05208 138.025 4.90755 138.191 4.79297C138.358 4.67578 138.559 4.58724 138.793 4.52734C139.027 4.46745 139.289 4.4375 139.578 4.4375H140.418ZM142.938 2.77344V7H142.211V2.77344H142.938ZM142.156 1.65234C142.156 1.53516 142.191 1.4362 142.262 1.35547C142.335 1.27474 142.441 1.23438 142.582 1.23438C142.72 1.23438 142.826 1.27474 142.898 1.35547C142.974 1.4362 143.012 1.53516 143.012 1.65234C143.012 1.76432 142.974 1.86068 142.898 1.94141C142.826 2.01953 142.72 2.05859 142.582 2.05859C142.441 2.05859 142.335 2.01953 142.262 1.94141C142.191 1.86068 142.156 1.76432 142.156 1.65234ZM144.82 3.67578V7H144.098V2.77344H144.781L144.82 3.67578ZM144.648 4.72656L144.348 4.71484C144.35 4.42578 144.393 4.15885 144.477 3.91406C144.56 3.66667 144.677 3.45182 144.828 3.26953C144.979 3.08724 145.159 2.94661 145.367 2.84766C145.578 2.74609 145.811 2.69531 146.066 2.69531C146.275 2.69531 146.462 2.72396 146.629 2.78125C146.796 2.83594 146.938 2.92448 147.055 3.04688C147.174 3.16927 147.266 3.32812 147.328 3.52344C147.391 3.71615 147.422 3.95182 147.422 4.23047V7H146.695V4.22266C146.695 4.0013 146.663 3.82422 146.598 3.69141C146.533 3.55599 146.438 3.45833 146.312 3.39844C146.188 3.33594 146.034 3.30469 145.852 3.30469C145.672 3.30469 145.508 3.34245 145.359 3.41797C145.214 3.49349 145.087 3.59766 144.98 3.73047C144.876 3.86328 144.794 4.01562 144.734 4.1875C144.677 4.35677 144.648 4.53646 144.648 4.72656ZM148.891 1V1.5C148.891 1.65625 148.863 1.82161 148.809 1.99609C148.757 2.16797 148.68 2.33464 148.578 2.49609C148.477 2.65495 148.354 2.79427 148.211 2.91406L147.797 2.62891C147.919 2.45703 148.012 2.28125 148.074 2.10156C148.139 1.91927 148.172 1.72266 148.172 1.51172V1H148.891ZM150.09 1V1.5C150.09 1.65625 150.062 1.82161 150.008 1.99609C149.956 2.16797 149.879 2.33464 149.777 2.49609C149.676 2.65495 149.553 2.79427 149.41 2.91406L148.996 2.62891C149.118 2.45703 149.211 2.28125 149.273 2.10156C149.339 1.91927 149.371 1.72266 149.371 1.51172V1H150.09Z" fill="white"/>
<path d="M0 21.1591L5.21416 18.68L0.460132 15.4039L0 21.1591ZM38.0453 4.66111C33.8234 4.2773 27.2643 4.49438 20.5643 6.2492C13.8659 8.00364 6.97936 11.3081 2.16668 17.137L2.93781 17.7737C7.57063 12.1626 14.2384 8.9398 20.8177 7.21657C27.3955 5.49373 33.8375 5.28271 37.9547 5.657L38.0453 4.66111Z" fill="white"/>
<path d="M43.2734 3.58594V8.625H42.5469V2.77344H43.2109L43.2734 3.58594ZM46.1211 4.85156V4.93359C46.1211 5.24089 46.0846 5.52604 46.0117 5.78906C45.9388 6.04948 45.832 6.27604 45.6914 6.46875C45.5534 6.66146 45.3828 6.8112 45.1797 6.91797C44.9766 7.02474 44.7435 7.07812 44.4805 7.07812C44.2122 7.07812 43.9753 7.03385 43.7695 6.94531C43.5638 6.85677 43.3893 6.72786 43.2461 6.55859C43.1029 6.38932 42.9883 6.1862 42.9023 5.94922C42.819 5.71224 42.7617 5.44531 42.7305 5.14844V4.71094C42.7617 4.39844 42.8203 4.11849 42.9062 3.87109C42.9922 3.6237 43.1055 3.41276 43.2461 3.23828C43.3893 3.0612 43.5625 2.92708 43.7656 2.83594C43.9688 2.74219 44.2031 2.69531 44.4688 2.69531C44.7344 2.69531 44.9701 2.7474 45.1758 2.85156C45.3815 2.95312 45.5547 3.09896 45.6953 3.28906C45.8359 3.47917 45.9414 3.70703 46.0117 3.97266C46.0846 4.23568 46.1211 4.52865 46.1211 4.85156ZM45.3945 4.93359V4.85156C45.3945 4.64062 45.3724 4.44271 45.3281 4.25781C45.2839 4.07031 45.2148 3.90625 45.1211 3.76562C45.0299 3.6224 44.9128 3.51042 44.7695 3.42969C44.6263 3.34635 44.4557 3.30469 44.2578 3.30469C44.0755 3.30469 43.9167 3.33594 43.7812 3.39844C43.6484 3.46094 43.5352 3.54557 43.4414 3.65234C43.3477 3.75651 43.2708 3.8763 43.2109 4.01172C43.1536 4.14453 43.1107 4.28255 43.082 4.42578V5.4375C43.1341 5.61979 43.207 5.79167 43.3008 5.95312C43.3945 6.11198 43.5195 6.24089 43.6758 6.33984C43.832 6.4362 44.0286 6.48438 44.2656 6.48438C44.4609 6.48438 44.6289 6.44401 44.7695 6.36328C44.9128 6.27995 45.0299 6.16667 45.1211 6.02344C45.2148 5.88021 45.2839 5.71615 45.3281 5.53125C45.3724 5.34375 45.3945 5.14453 45.3945 4.93359ZM47.7656 3.4375V7H47.043V2.77344H47.7461L47.7656 3.4375ZM49.0859 2.75L49.082 3.42188C49.0221 3.40885 48.9648 3.40104 48.9102 3.39844C48.8581 3.39323 48.7982 3.39062 48.7305 3.39062C48.5638 3.39062 48.4167 3.41667 48.2891 3.46875C48.1615 3.52083 48.0534 3.59375 47.9648 3.6875C47.8763 3.78125 47.806 3.89323 47.7539 4.02344C47.7044 4.15104 47.6719 4.29167 47.6562 4.44531L47.4531 4.5625C47.4531 4.30729 47.4779 4.06771 47.5273 3.84375C47.5794 3.61979 47.6589 3.42188 47.7656 3.25C47.8724 3.07552 48.0078 2.9401 48.1719 2.84375C48.3385 2.74479 48.5365 2.69531 48.7656 2.69531C48.8177 2.69531 48.8776 2.70182 48.9453 2.71484C49.013 2.72526 49.0599 2.73698 49.0859 2.75ZM49.4844 4.93359V4.84375C49.4844 4.53906 49.5286 4.25651 49.6172 3.99609C49.7057 3.73307 49.8333 3.50521 50 3.3125C50.1667 3.11719 50.3685 2.96615 50.6055 2.85938C50.8424 2.75 51.1081 2.69531 51.4023 2.69531C51.6992 2.69531 51.9661 2.75 52.2031 2.85938C52.4427 2.96615 52.6458 3.11719 52.8125 3.3125C52.9818 3.50521 53.1107 3.73307 53.1992 3.99609C53.2878 4.25651 53.332 4.53906 53.332 4.84375V4.93359C53.332 5.23828 53.2878 5.52083 53.1992 5.78125C53.1107 6.04167 52.9818 6.26953 52.8125 6.46484C52.6458 6.65755 52.444 6.80859 52.207 6.91797C51.9727 7.02474 51.707 7.07812 51.4102 7.07812C51.1133 7.07812 50.8464 7.02474 50.6094 6.91797C50.3724 6.80859 50.1693 6.65755 50 6.46484C49.8333 6.26953 49.7057 6.04167 49.6172 5.78125C49.5286 5.52083 49.4844 5.23828 49.4844 4.93359ZM50.207 4.84375V4.93359C50.207 5.14453 50.2318 5.34375 50.2812 5.53125C50.3307 5.71615 50.4049 5.88021 50.5039 6.02344C50.6055 6.16667 50.7318 6.27995 50.8828 6.36328C51.0339 6.44401 51.2096 6.48438 51.4102 6.48438C51.6081 6.48438 51.7812 6.44401 51.9297 6.36328C52.0807 6.27995 52.2057 6.16667 52.3047 6.02344C52.4036 5.88021 52.4779 5.71615 52.5273 5.53125C52.5794 5.34375 52.6055 5.14453 52.6055 4.93359V4.84375C52.6055 4.63542 52.5794 4.4388 52.5273 4.25391C52.4779 4.06641 52.4023 3.90104 52.3008 3.75781C52.2018 3.61198 52.0768 3.4974 51.9258 3.41406C51.7773 3.33073 51.6029 3.28906 51.4023 3.28906C51.2044 3.28906 51.0299 3.33073 50.8789 3.41406C50.7305 3.4974 50.6055 3.61198 50.5039 3.75781C50.4049 3.90104 50.3307 4.06641 50.2812 4.25391C50.2318 4.4388 50.207 4.63542 50.207 4.84375ZM54.9609 3.67578V7H54.2383V2.77344H54.9219L54.9609 3.67578ZM54.7891 4.72656L54.4883 4.71484C54.4909 4.42578 54.5339 4.15885 54.6172 3.91406C54.7005 3.66667 54.8177 3.45182 54.9688 3.26953C55.1198 3.08724 55.2995 2.94661 55.5078 2.84766C55.7188 2.74609 55.9518 2.69531 56.207 2.69531C56.4154 2.69531 56.6029 2.72396 56.7695 2.78125C56.9362 2.83594 57.0781 2.92448 57.1953 3.04688C57.3151 3.16927 57.4062 3.32812 57.4688 3.52344C57.5312 3.71615 57.5625 3.95182 57.5625 4.23047V7H56.8359V4.22266C56.8359 4.0013 56.8034 3.82422 56.7383 3.69141C56.6732 3.55599 56.5781 3.45833 56.4531 3.39844C56.3281 3.33594 56.1745 3.30469 55.9922 3.30469C55.8125 3.30469 55.6484 3.34245 55.5 3.41797C55.3542 3.49349 55.2279 3.59766 55.1211 3.73047C55.0169 3.86328 54.9349 4.01562 54.875 4.1875C54.8177 4.35677 54.7891 4.53646 54.7891 4.72656ZM58.4688 4.93359V4.84375C58.4688 4.53906 58.513 4.25651 58.6016 3.99609C58.6901 3.73307 58.8177 3.50521 58.9844 3.3125C59.151 3.11719 59.3529 2.96615 59.5898 2.85938C59.8268 2.75 60.0924 2.69531 60.3867 2.69531C60.6836 2.69531 60.9505 2.75 61.1875 2.85938C61.4271 2.96615 61.6302 3.11719 61.7969 3.3125C61.9661 3.50521 62.0951 3.73307 62.1836 3.99609C62.2721 4.25651 62.3164 4.53906 62.3164 4.84375V4.93359C62.3164 5.23828 62.2721 5.52083 62.1836 5.78125C62.0951 6.04167 61.9661 6.26953 61.7969 6.46484C61.6302 6.65755 61.4284 6.80859 61.1914 6.91797C60.957 7.02474 60.6914 7.07812 60.3945 7.07812C60.0977 7.07812 59.8307 7.02474 59.5938 6.91797C59.3568 6.80859 59.1536 6.65755 58.9844 6.46484C58.8177 6.26953 58.6901 6.04167 58.6016 5.78125C58.513 5.52083 58.4688 5.23828 58.4688 4.93359ZM59.1914 4.84375V4.93359C59.1914 5.14453 59.2161 5.34375 59.2656 5.53125C59.3151 5.71615 59.3893 5.88021 59.4883 6.02344C59.5898 6.16667 59.7161 6.27995 59.8672 6.36328C60.0182 6.44401 60.194 6.48438 60.3945 6.48438C60.5924 6.48438 60.7656 6.44401 60.9141 6.36328C61.0651 6.27995 61.1901 6.16667 61.2891 6.02344C61.388 5.88021 61.4622 5.71615 61.5117 5.53125C61.5638 5.34375 61.5898 5.14453 61.5898 4.93359V4.84375C61.5898 4.63542 61.5638 4.4388 61.5117 4.25391C61.4622 4.06641 61.3867 3.90104 61.2852 3.75781C61.1862 3.61198 61.0612 3.4974 60.9102 3.41406C60.7617 3.33073 60.5872 3.28906 60.3867 3.28906C60.1888 3.28906 60.0143 3.33073 59.8633 3.41406C59.7148 3.4974 59.5898 3.61198 59.4883 3.75781C59.3893 3.90104 59.3151 4.06641 59.2656 4.25391C59.2161 4.4388 59.1914 4.63542 59.1914 4.84375ZM65.8086 6.02344V2.77344H66.5352V7H65.8438L65.8086 6.02344ZM65.9453 5.13281L66.2461 5.125C66.2461 5.40625 66.2161 5.66667 66.1562 5.90625C66.099 6.14323 66.0052 6.34896 65.875 6.52344C65.7448 6.69792 65.5742 6.83464 65.3633 6.93359C65.1523 7.02995 64.8958 7.07812 64.5938 7.07812C64.388 7.07812 64.1992 7.04818 64.0273 6.98828C63.8581 6.92839 63.7122 6.83594 63.5898 6.71094C63.4674 6.58594 63.3724 6.42318 63.3047 6.22266C63.2396 6.02214 63.207 5.78125 63.207 5.5V2.77344H63.9297V5.50781C63.9297 5.69792 63.9505 5.85547 63.9922 5.98047C64.0365 6.10286 64.0951 6.20052 64.168 6.27344C64.2435 6.34375 64.3268 6.39323 64.418 6.42188C64.5117 6.45052 64.6081 6.46484 64.707 6.46484C65.0143 6.46484 65.2578 6.40625 65.4375 6.28906C65.6172 6.16927 65.7461 6.00911 65.8242 5.80859C65.9049 5.60547 65.9453 5.38021 65.9453 5.13281ZM68.3594 3.67578V7H67.6367V2.77344H68.3203L68.3594 3.67578ZM68.1875 4.72656L67.8867 4.71484C67.8893 4.42578 67.9323 4.15885 68.0156 3.91406C68.099 3.66667 68.2161 3.45182 68.3672 3.26953C68.5182 3.08724 68.6979 2.94661 68.9062 2.84766C69.1172 2.74609 69.3503 2.69531 69.6055 2.69531C69.8138 2.69531 70.0013 2.72396 70.168 2.78125C70.3346 2.83594 70.4766 2.92448 70.5938 3.04688C70.7135 3.16927 70.8047 3.32812 70.8672 3.52344C70.9297 3.71615 70.9609 3.95182 70.9609 4.23047V7H70.2344V4.22266C70.2344 4.0013 70.2018 3.82422 70.1367 3.69141C70.0716 3.55599 69.9766 3.45833 69.8516 3.39844C69.7266 3.33594 69.5729 3.30469 69.3906 3.30469C69.2109 3.30469 69.0469 3.34245 68.8984 3.41797C68.7526 3.49349 68.6263 3.59766 68.5195 3.73047C68.4154 3.86328 68.3333 4.01562 68.2734 4.1875C68.2161 4.35677 68.1875 4.53646 68.1875 4.72656ZM73.75 6.48438C73.9219 6.48438 74.0807 6.44922 74.2266 6.37891C74.3724 6.30859 74.4922 6.21224 74.5859 6.08984C74.6797 5.96484 74.7331 5.82292 74.7461 5.66406H75.4336C75.4206 5.91406 75.3359 6.14714 75.1797 6.36328C75.026 6.57682 74.8242 6.75 74.5742 6.88281C74.3242 7.01302 74.0495 7.07812 73.75 7.07812C73.4323 7.07812 73.1549 7.02214 72.918 6.91016C72.6836 6.79818 72.4883 6.64453 72.332 6.44922C72.1784 6.25391 72.0625 6.02995 71.9844 5.77734C71.9089 5.52214 71.8711 5.2526 71.8711 4.96875V4.80469C71.8711 4.52083 71.9089 4.2526 71.9844 4C72.0625 3.74479 72.1784 3.51953 72.332 3.32422C72.4883 3.12891 72.6836 2.97526 72.918 2.86328C73.1549 2.7513 73.4323 2.69531 73.75 2.69531C74.0807 2.69531 74.3698 2.76302 74.6172 2.89844C74.8646 3.03125 75.0586 3.21354 75.1992 3.44531C75.3424 3.67448 75.4206 3.9349 75.4336 4.22656H74.7461C74.7331 4.05208 74.6836 3.89453 74.5977 3.75391C74.5143 3.61328 74.3997 3.5013 74.2539 3.41797C74.1107 3.33203 73.9427 3.28906 73.75 3.28906C73.5286 3.28906 73.3424 3.33333 73.1914 3.42188C73.043 3.50781 72.9245 3.625 72.8359 3.77344C72.75 3.91927 72.6875 4.08203 72.6484 4.26172C72.612 4.4388 72.5938 4.61979 72.5938 4.80469V4.96875C72.5938 5.15365 72.612 5.33594 72.6484 5.51562C72.6849 5.69531 72.7461 5.85807 72.832 6.00391C72.9206 6.14974 73.0391 6.26693 73.1875 6.35547C73.3385 6.44141 73.526 6.48438 73.75 6.48438ZM78 7.07812C77.7057 7.07812 77.4388 7.02865 77.1992 6.92969C76.9622 6.82812 76.7578 6.6862 76.5859 6.50391C76.4167 6.32161 76.2865 6.10547 76.1953 5.85547C76.1042 5.60547 76.0586 5.33203 76.0586 5.03516V4.87109C76.0586 4.52734 76.1094 4.22135 76.2109 3.95312C76.3125 3.68229 76.4505 3.45312 76.625 3.26562C76.7995 3.07812 76.9974 2.9362 77.2188 2.83984C77.4401 2.74349 77.6693 2.69531 77.9062 2.69531C78.2083 2.69531 78.4688 2.7474 78.6875 2.85156C78.9089 2.95573 79.0898 3.10156 79.2305 3.28906C79.3711 3.47396 79.4753 3.69271 79.543 3.94531C79.6107 4.19531 79.6445 4.46875 79.6445 4.76562V5.08984H76.4883V4.5H78.9219V4.44531C78.9115 4.25781 78.8724 4.07552 78.8047 3.89844C78.7396 3.72135 78.6354 3.57552 78.4922 3.46094C78.349 3.34635 78.1536 3.28906 77.9062 3.28906C77.7422 3.28906 77.5911 3.32422 77.4531 3.39453C77.3151 3.46224 77.1966 3.5638 77.0977 3.69922C76.9987 3.83464 76.9219 4 76.8672 4.19531C76.8125 4.39062 76.7852 4.61589 76.7852 4.87109V5.03516C76.7852 5.23568 76.8125 5.42448 76.8672 5.60156C76.9245 5.77604 77.0065 5.92969 77.1133 6.0625C77.2227 6.19531 77.3542 6.29948 77.5078 6.375C77.6641 6.45052 77.8411 6.48828 78.0391 6.48828C78.2943 6.48828 78.5104 6.4362 78.6875 6.33203C78.8646 6.22786 79.0195 6.08854 79.1523 5.91406L79.5898 6.26172C79.4987 6.39974 79.3828 6.53125 79.2422 6.65625C79.1016 6.78125 78.9284 6.88281 78.7227 6.96094C78.5195 7.03906 78.2786 7.07812 78 7.07812ZM83.1523 6.17969V1H83.8789V7H83.2148L83.1523 6.17969ZM80.3086 4.93359V4.85156C80.3086 4.52865 80.3477 4.23568 80.4258 3.97266C80.5065 3.70703 80.6198 3.47917 80.7656 3.28906C80.9141 3.09896 81.0898 2.95312 81.293 2.85156C81.4987 2.7474 81.7279 2.69531 81.9805 2.69531C82.2461 2.69531 82.4779 2.74219 82.6758 2.83594C82.8763 2.92708 83.0456 3.0612 83.1836 3.23828C83.3242 3.41276 83.4349 3.6237 83.5156 3.87109C83.5964 4.11849 83.6523 4.39844 83.6836 4.71094V5.07031C83.6549 5.38021 83.599 5.65885 83.5156 5.90625C83.4349 6.15365 83.3242 6.36458 83.1836 6.53906C83.0456 6.71354 82.8763 6.84766 82.6758 6.94141C82.4753 7.03255 82.2409 7.07812 81.9727 7.07812C81.7253 7.07812 81.4987 7.02474 81.293 6.91797C81.0898 6.8112 80.9141 6.66146 80.7656 6.46875C80.6198 6.27604 80.5065 6.04948 80.4258 5.78906C80.3477 5.52604 80.3086 5.24089 80.3086 4.93359ZM81.0352 4.85156V4.93359C81.0352 5.14453 81.056 5.34245 81.0977 5.52734C81.1419 5.71224 81.2096 5.875 81.3008 6.01562C81.3919 6.15625 81.5078 6.26693 81.6484 6.34766C81.7891 6.42578 81.957 6.46484 82.1523 6.46484C82.3919 6.46484 82.5885 6.41406 82.7422 6.3125C82.8984 6.21094 83.0234 6.07682 83.1172 5.91016C83.2109 5.74349 83.2839 5.5625 83.3359 5.36719V4.42578C83.3047 4.28255 83.2591 4.14453 83.1992 4.01172C83.1419 3.8763 83.0664 3.75651 82.9727 3.65234C82.8815 3.54557 82.7682 3.46094 82.6328 3.39844C82.5 3.33594 82.3424 3.30469 82.1602 3.30469C81.9622 3.30469 81.7917 3.34635 81.6484 3.42969C81.5078 3.51042 81.3919 3.6224 81.3008 3.76562C81.2096 3.90625 81.1419 4.07031 81.0977 4.25781C81.056 4.44271 81.0352 4.64062 81.0352 4.85156ZM89.4492 5.87891C89.4492 5.77474 89.4258 5.67839 89.3789 5.58984C89.3346 5.4987 89.2422 5.41667 89.1016 5.34375C88.9635 5.26823 88.7552 5.20312 88.4766 5.14844C88.2422 5.09896 88.0299 5.04036 87.8398 4.97266C87.6523 4.90495 87.4922 4.82292 87.3594 4.72656C87.2292 4.63021 87.1289 4.51693 87.0586 4.38672C86.9883 4.25651 86.9531 4.10417 86.9531 3.92969C86.9531 3.76302 86.9896 3.60547 87.0625 3.45703C87.138 3.30859 87.2435 3.17708 87.3789 3.0625C87.5169 2.94792 87.6823 2.85807 87.875 2.79297C88.0677 2.72786 88.2826 2.69531 88.5195 2.69531C88.8581 2.69531 89.1471 2.75521 89.3867 2.875C89.6263 2.99479 89.8099 3.15495 89.9375 3.35547C90.0651 3.55339 90.1289 3.77344 90.1289 4.01562H89.4062C89.4062 3.89844 89.3711 3.78516 89.3008 3.67578C89.2331 3.5638 89.1328 3.47135 89 3.39844C88.8698 3.32552 88.7096 3.28906 88.5195 3.28906C88.319 3.28906 88.1562 3.32031 88.0312 3.38281C87.9089 3.44271 87.819 3.51953 87.7617 3.61328C87.707 3.70703 87.6797 3.80599 87.6797 3.91016C87.6797 3.98828 87.6927 4.05859 87.7188 4.12109C87.7474 4.18099 87.7969 4.23698 87.8672 4.28906C87.9375 4.33854 88.0365 4.38542 88.1641 4.42969C88.2917 4.47396 88.4544 4.51823 88.6523 4.5625C88.9987 4.64062 89.2839 4.73438 89.5078 4.84375C89.7318 4.95312 89.8984 5.08724 90.0078 5.24609C90.1172 5.40495 90.1719 5.59766 90.1719 5.82422C90.1719 6.00911 90.1328 6.17839 90.0547 6.33203C89.9792 6.48568 89.8685 6.61849 89.7227 6.73047C89.5794 6.83984 89.4076 6.92578 89.207 6.98828C89.0091 7.04818 88.7865 7.07812 88.5391 7.07812C88.1667 7.07812 87.8516 7.01172 87.5938 6.87891C87.3359 6.74609 87.1406 6.57422 87.0078 6.36328C86.875 6.15234 86.8086 5.92969 86.8086 5.69531H87.5352C87.5456 5.89323 87.6029 6.05078 87.707 6.16797C87.8112 6.28255 87.9388 6.36458 88.0898 6.41406C88.2409 6.46094 88.3906 6.48438 88.5391 6.48438C88.737 6.48438 88.9023 6.45833 89.0352 6.40625C89.1706 6.35417 89.2734 6.28255 89.3438 6.19141C89.4141 6.10026 89.4492 5.99609 89.4492 5.87891ZM90.9297 4.93359V4.84375C90.9297 4.53906 90.974 4.25651 91.0625 3.99609C91.151 3.73307 91.2786 3.50521 91.4453 3.3125C91.612 3.11719 91.8138 2.96615 92.0508 2.85938C92.2878 2.75 92.5534 2.69531 92.8477 2.69531C93.1445 2.69531 93.4115 2.75 93.6484 2.85938C93.888 2.96615 94.0911 3.11719 94.2578 3.3125C94.4271 3.50521 94.556 3.73307 94.6445 3.99609C94.7331 4.25651 94.7773 4.53906 94.7773 4.84375V4.93359C94.7773 5.23828 94.7331 5.52083 94.6445 5.78125C94.556 6.04167 94.4271 6.26953 94.2578 6.46484C94.0911 6.65755 93.8893 6.80859 93.6523 6.91797C93.418 7.02474 93.1523 7.07812 92.8555 7.07812C92.5586 7.07812 92.2917 7.02474 92.0547 6.91797C91.8177 6.80859 91.6146 6.65755 91.4453 6.46484C91.2786 6.26953 91.151 6.04167 91.0625 5.78125C90.974 5.52083 90.9297 5.23828 90.9297 4.93359ZM91.6523 4.84375V4.93359C91.6523 5.14453 91.6771 5.34375 91.7266 5.53125C91.776 5.71615 91.8503 5.88021 91.9492 6.02344C92.0508 6.16667 92.1771 6.27995 92.3281 6.36328C92.4792 6.44401 92.6549 6.48438 92.8555 6.48438C93.0534 6.48438 93.2266 6.44401 93.375 6.36328C93.526 6.27995 93.651 6.16667 93.75 6.02344C93.849 5.88021 93.9232 5.71615 93.9727 5.53125C94.0247 5.34375 94.0508 5.14453 94.0508 4.93359V4.84375C94.0508 4.63542 94.0247 4.4388 93.9727 4.25391C93.9232 4.06641 93.8477 3.90104 93.7461 3.75781C93.6471 3.61198 93.5221 3.4974 93.3711 3.41406C93.2227 3.33073 93.0482 3.28906 92.8477 3.28906C92.6497 3.28906 92.4753 3.33073 92.3242 3.41406C92.1758 3.4974 92.0508 3.61198 91.9492 3.75781C91.8503 3.90104 91.776 4.06641 91.7266 4.25391C91.6771 4.4388 91.6523 4.63542 91.6523 4.84375ZM96.4062 3.4375V7H95.6836V2.77344H96.3867L96.4062 3.4375ZM97.7266 2.75L97.7227 3.42188C97.6628 3.40885 97.6055 3.40104 97.5508 3.39844C97.4987 3.39323 97.4388 3.39062 97.3711 3.39062C97.2044 3.39062 97.0573 3.41667 96.9297 3.46875C96.8021 3.52083 96.694 3.59375 96.6055 3.6875C96.5169 3.78125 96.4466 3.89323 96.3945 4.02344C96.3451 4.15104 96.3125 4.29167 96.2969 4.44531L96.0938 4.5625C96.0938 4.30729 96.1185 4.06771 96.168 3.84375C96.2201 3.61979 96.2995 3.42188 96.4062 3.25C96.513 3.07552 96.6484 2.9401 96.8125 2.84375C96.9792 2.74479 97.1771 2.69531 97.4062 2.69531C97.4583 2.69531 97.5182 2.70182 97.5859 2.71484C97.6536 2.72526 97.7005 2.73698 97.7266 2.75ZM100.359 2.77344V3.32812H98.0742V2.77344H100.359ZM98.8477 1.74609H99.5703V5.95312C99.5703 6.09635 99.5924 6.20443 99.6367 6.27734C99.681 6.35026 99.7383 6.39844 99.8086 6.42188C99.8789 6.44531 99.9544 6.45703 100.035 6.45703C100.095 6.45703 100.158 6.45182 100.223 6.44141C100.29 6.42839 100.341 6.41797 100.375 6.41016L100.379 7C100.322 7.01823 100.246 7.03516 100.152 7.05078C100.061 7.06901 99.9505 7.07812 99.8203 7.07812C99.6432 7.07812 99.4805 7.04297 99.332 6.97266C99.1836 6.90234 99.0651 6.78516 98.9766 6.62109C98.8906 6.45443 98.8477 6.23047 98.8477 5.94922V1.74609ZM103 4.93359V4.84375C103 4.53906 103.044 4.25651 103.133 3.99609C103.221 3.73307 103.349 3.50521 103.516 3.3125C103.682 3.11719 103.884 2.96615 104.121 2.85938C104.358 2.75 104.624 2.69531 104.918 2.69531C105.215 2.69531 105.482 2.75 105.719 2.85938C105.958 2.96615 106.161 3.11719 106.328 3.3125C106.497 3.50521 106.626 3.73307 106.715 3.99609C106.803 4.25651 106.848 4.53906 106.848 4.84375V4.93359C106.848 5.23828 106.803 5.52083 106.715 5.78125C106.626 6.04167 106.497 6.26953 106.328 6.46484C106.161 6.65755 105.96 6.80859 105.723 6.91797C105.488 7.02474 105.223 7.07812 104.926 7.07812C104.629 7.07812 104.362 7.02474 104.125 6.91797C103.888 6.80859 103.685 6.65755 103.516 6.46484C103.349 6.26953 103.221 6.04167 103.133 5.78125C103.044 5.52083 103 5.23828 103 4.93359ZM103.723 4.84375V4.93359C103.723 5.14453 103.747 5.34375 103.797 5.53125C103.846 5.71615 103.921 5.88021 104.02 6.02344C104.121 6.16667 104.247 6.27995 104.398 6.36328C104.549 6.44401 104.725 6.48438 104.926 6.48438C105.124 6.48438 105.297 6.44401 105.445 6.36328C105.596 6.27995 105.721 6.16667 105.82 6.02344C105.919 5.88021 105.993 5.71615 106.043 5.53125C106.095 5.34375 106.121 5.14453 106.121 4.93359V4.84375C106.121 4.63542 106.095 4.4388 106.043 4.25391C105.993 4.06641 105.918 3.90104 105.816 3.75781C105.717 3.61198 105.592 3.4974 105.441 3.41406C105.293 3.33073 105.118 3.28906 104.918 3.28906C104.72 3.28906 104.546 3.33073 104.395 3.41406C104.246 3.4974 104.121 3.61198 104.02 3.75781C103.921 3.90104 103.846 4.06641 103.797 4.25391C103.747 4.4388 103.723 4.63542 103.723 4.84375ZM108.832 7H108.109V2.32812C108.109 2.02344 108.164 1.76693 108.273 1.55859C108.385 1.34766 108.546 1.1888 108.754 1.08203C108.962 0.972656 109.21 0.917969 109.496 0.917969C109.579 0.917969 109.663 0.923177 109.746 0.933594C109.832 0.94401 109.915 0.959635 109.996 0.980469L109.957 1.57031C109.902 1.55729 109.84 1.54818 109.77 1.54297C109.702 1.53776 109.634 1.53516 109.566 1.53516C109.413 1.53516 109.28 1.56641 109.168 1.62891C109.059 1.6888 108.975 1.77734 108.918 1.89453C108.861 2.01172 108.832 2.15625 108.832 2.32812V7ZM109.73 2.77344V3.32812H107.441V2.77344H109.73ZM113.305 1V7H112.578V1H113.305ZM115.25 2.77344V7H114.523V2.77344H115.25ZM114.469 1.65234C114.469 1.53516 114.504 1.4362 114.574 1.35547C114.647 1.27474 114.754 1.23438 114.895 1.23438C115.033 1.23438 115.138 1.27474 115.211 1.35547C115.286 1.4362 115.324 1.53516 115.324 1.65234C115.324 1.76432 115.286 1.86068 115.211 1.94141C115.138 2.01953 115.033 2.05859 114.895 2.05859C114.754 2.05859 114.647 2.01953 114.574 1.94141C114.504 1.86068 114.469 1.76432 114.469 1.65234ZM117.137 1V7H116.41V1H117.137ZM119.719 2.77344L117.875 4.74609L116.844 5.81641L116.785 5.04688L117.523 4.16406L118.836 2.77344H119.719ZM119.059 7L117.551 4.98438L117.926 4.33984L119.91 7H119.059ZM122.141 7.07812C121.846 7.07812 121.579 7.02865 121.34 6.92969C121.103 6.82812 120.898 6.6862 120.727 6.50391C120.557 6.32161 120.427 6.10547 120.336 5.85547C120.245 5.60547 120.199 5.33203 120.199 5.03516V4.87109C120.199 4.52734 120.25 4.22135 120.352 3.95312C120.453 3.68229 120.591 3.45312 120.766 3.26562C120.94 3.07812 121.138 2.9362 121.359 2.83984C121.581 2.74349 121.81 2.69531 122.047 2.69531C122.349 2.69531 122.609 2.7474 122.828 2.85156C123.049 2.95573 123.23 3.10156 123.371 3.28906C123.512 3.47396 123.616 3.69271 123.684 3.94531C123.751 4.19531 123.785 4.46875 123.785 4.76562V5.08984H120.629V4.5H123.062V4.44531C123.052 4.25781 123.013 4.07552 122.945 3.89844C122.88 3.72135 122.776 3.57552 122.633 3.46094C122.49 3.34635 122.294 3.28906 122.047 3.28906C121.883 3.28906 121.732 3.32422 121.594 3.39453C121.456 3.46224 121.337 3.5638 121.238 3.69922C121.139 3.83464 121.062 4 121.008 4.19531C120.953 4.39062 120.926 4.61589 120.926 4.87109V5.03516C120.926 5.23568 120.953 5.42448 121.008 5.60156C121.065 5.77604 121.147 5.92969 121.254 6.0625C121.363 6.19531 121.495 6.29948 121.648 6.375C121.805 6.45052 121.982 6.48828 122.18 6.48828C122.435 6.48828 122.651 6.4362 122.828 6.33203C123.005 6.22786 123.16 6.08854 123.293 5.91406L123.73 6.26172C123.639 6.39974 123.523 6.53125 123.383 6.65625C123.242 6.78125 123.069 6.88281 122.863 6.96094C122.66 7.03906 122.419 7.07812 122.141 7.07812ZM126.473 2.80859V2.33594C126.473 2.17708 126.499 2.01172 126.551 1.83984C126.605 1.66536 126.684 1.4987 126.785 1.33984C126.887 1.17839 127.009 1.03906 127.152 0.921875L127.562 1.20703C127.443 1.37891 127.35 1.55599 127.285 1.73828C127.22 1.91797 127.188 2.11328 127.188 2.32422V2.80859H126.473ZM127.703 2.80859V2.33594C127.703 2.17708 127.729 2.01172 127.781 1.83984C127.836 1.66536 127.914 1.4987 128.016 1.33984C128.117 1.17839 128.24 1.03906 128.383 0.921875L128.793 1.20703C128.673 1.37891 128.581 1.55599 128.516 1.73828C128.451 1.91797 128.418 2.11328 128.418 2.32422V2.80859H127.703ZM130.898 6.48438C131.07 6.48438 131.229 6.44922 131.375 6.37891C131.521 6.30859 131.641 6.21224 131.734 6.08984C131.828 5.96484 131.882 5.82292 131.895 5.66406H132.582C132.569 5.91406 132.484 6.14714 132.328 6.36328C132.174 6.57682 131.973 6.75 131.723 6.88281C131.473 7.01302 131.198 7.07812 130.898 7.07812C130.581 7.07812 130.303 7.02214 130.066 6.91016C129.832 6.79818 129.637 6.64453 129.48 6.44922C129.327 6.25391 129.211 6.02995 129.133 5.77734C129.057 5.52214 129.02 5.2526 129.02 4.96875V4.80469C129.02 4.52083 129.057 4.2526 129.133 4C129.211 3.74479 129.327 3.51953 129.48 3.32422C129.637 3.12891 129.832 2.97526 130.066 2.86328C130.303 2.7513 130.581 2.69531 130.898 2.69531C131.229 2.69531 131.518 2.76302 131.766 2.89844C132.013 3.03125 132.207 3.21354 132.348 3.44531C132.491 3.67448 132.569 3.9349 132.582 4.22656H131.895C131.882 4.05208 131.832 3.89453 131.746 3.75391C131.663 3.61328 131.548 3.5013 131.402 3.41797C131.259 3.33203 131.091 3.28906 130.898 3.28906C130.677 3.28906 130.491 3.33333 130.34 3.42188C130.191 3.50781 130.073 3.625 129.984 3.77344C129.898 3.91927 129.836 4.08203 129.797 4.26172C129.76 4.4388 129.742 4.61979 129.742 4.80469V4.96875C129.742 5.15365 129.76 5.33594 129.797 5.51562C129.833 5.69531 129.895 5.85807 129.98 6.00391C130.069 6.14974 130.188 6.26693 130.336 6.35547C130.487 6.44141 130.674 6.48438 130.898 6.48438ZM134.117 1V7H133.395V1H134.117ZM133.945 4.72656L133.645 4.71484C133.647 4.42578 133.69 4.15885 133.773 3.91406C133.857 3.66667 133.974 3.45182 134.125 3.26953C134.276 3.08724 134.456 2.94661 134.664 2.84766C134.875 2.74609 135.108 2.69531 135.363 2.69531C135.572 2.69531 135.759 2.72396 135.926 2.78125C136.092 2.83594 136.234 2.92448 136.352 3.04688C136.471 3.16927 136.562 3.32812 136.625 3.52344C136.688 3.71615 136.719 3.95182 136.719 4.23047V7H135.992V4.22266C135.992 4.0013 135.96 3.82422 135.895 3.69141C135.829 3.55599 135.734 3.45833 135.609 3.39844C135.484 3.33594 135.331 3.30469 135.148 3.30469C134.969 3.30469 134.805 3.34245 134.656 3.41797C134.51 3.49349 134.384 3.59766 134.277 3.73047C134.173 3.86328 134.091 4.01562 134.031 4.1875C133.974 4.35677 133.945 4.53646 133.945 4.72656ZM140.293 6.27734V4.10156C140.293 3.9349 140.259 3.79036 140.191 3.66797C140.126 3.54297 140.027 3.44661 139.895 3.37891C139.762 3.3112 139.598 3.27734 139.402 3.27734C139.22 3.27734 139.06 3.30859 138.922 3.37109C138.786 3.43359 138.68 3.51562 138.602 3.61719C138.526 3.71875 138.488 3.82812 138.488 3.94531H137.766C137.766 3.79427 137.805 3.64453 137.883 3.49609C137.961 3.34766 138.073 3.21354 138.219 3.09375C138.367 2.97135 138.544 2.875 138.75 2.80469C138.958 2.73177 139.19 2.69531 139.445 2.69531C139.753 2.69531 140.023 2.7474 140.258 2.85156C140.495 2.95573 140.68 3.11328 140.812 3.32422C140.948 3.53255 141.016 3.79427 141.016 4.10938V6.07812C141.016 6.21875 141.027 6.36849 141.051 6.52734C141.077 6.6862 141.115 6.82292 141.164 6.9375V7H140.41C140.374 6.91667 140.345 6.80599 140.324 6.66797C140.303 6.52734 140.293 6.39714 140.293 6.27734ZM140.418 4.4375L140.426 4.94531H139.695C139.49 4.94531 139.306 4.96224 139.145 4.99609C138.983 5.02734 138.848 5.07552 138.738 5.14062C138.629 5.20573 138.546 5.28776 138.488 5.38672C138.431 5.48307 138.402 5.59635 138.402 5.72656C138.402 5.85938 138.432 5.98047 138.492 6.08984C138.552 6.19922 138.642 6.28646 138.762 6.35156C138.884 6.41406 139.034 6.44531 139.211 6.44531C139.432 6.44531 139.628 6.39844 139.797 6.30469C139.966 6.21094 140.1 6.09635 140.199 5.96094C140.301 5.82552 140.355 5.69401 140.363 5.56641L140.672 5.91406C140.654 6.02344 140.604 6.14453 140.523 6.27734C140.443 6.41016 140.335 6.53776 140.199 6.66016C140.066 6.77995 139.908 6.88021 139.723 6.96094C139.54 7.03906 139.335 7.07812 139.105 7.07812C138.819 7.07812 138.568 7.02214 138.352 6.91016C138.138 6.79818 137.971 6.64844 137.852 6.46094C137.734 6.27083 137.676 6.05859 137.676 5.82422C137.676 5.59766 137.72 5.39844 137.809 5.22656C137.897 5.05208 138.025 4.90755 138.191 4.79297C138.358 4.67578 138.559 4.58724 138.793 4.52734C139.027 4.46745 139.289 4.4375 139.578 4.4375H140.418ZM142.938 2.77344V7H142.211V2.77344H142.938ZM142.156 1.65234C142.156 1.53516 142.191 1.4362 142.262 1.35547C142.335 1.27474 142.441 1.23438 142.582 1.23438C142.72 1.23438 142.826 1.27474 142.898 1.35547C142.974 1.4362 143.012 1.53516 143.012 1.65234C143.012 1.76432 142.974 1.86068 142.898 1.94141C142.826 2.01953 142.72 2.05859 142.582 2.05859C142.441 2.05859 142.335 2.01953 142.262 1.94141C142.191 1.86068 142.156 1.76432 142.156 1.65234ZM144.82 3.67578V7H144.098V2.77344H144.781L144.82 3.67578ZM144.648 4.72656L144.348 4.71484C144.35 4.42578 144.393 4.15885 144.477 3.91406C144.56 3.66667 144.677 3.45182 144.828 3.26953C144.979 3.08724 145.159 2.94661 145.367 2.84766C145.578 2.74609 145.811 2.69531 146.066 2.69531C146.275 2.69531 146.462 2.72396 146.629 2.78125C146.796 2.83594 146.938 2.92448 147.055 3.04688C147.174 3.16927 147.266 3.32812 147.328 3.52344C147.391 3.71615 147.422 3.95182 147.422 4.23047V7H146.695V4.22266C146.695 4.0013 146.663 3.82422 146.598 3.69141C146.533 3.55599 146.438 3.45833 146.312 3.39844C146.188 3.33594 146.034 3.30469 145.852 3.30469C145.672 3.30469 145.508 3.34245 145.359 3.41797C145.214 3.49349 145.087 3.59766 144.98 3.73047C144.876 3.86328 144.794 4.01562 144.734 4.1875C144.677 4.35677 144.648 4.53646 144.648 4.72656ZM148.891 1V1.5C148.891 1.65625 148.863 1.82161 148.809 1.99609C148.757 2.16797 148.68 2.33464 148.578 2.49609C148.477 2.65495 148.354 2.79427 148.211 2.91406L147.797 2.62891C147.919 2.45703 148.012 2.28125 148.074 2.10156C148.139 1.91927 148.172 1.72266 148.172 1.51172V1H148.891ZM150.09 1V1.5C150.09 1.65625 150.062 1.82161 150.008 1.99609C149.956 2.16797 149.879 2.33464 149.777 2.49609C149.676 2.65495 149.553 2.79427 149.41 2.91406L148.996 2.62891C149.118 2.45703 149.211 2.28125 149.273 2.10156C149.339 1.91927 149.371 1.72266 149.371 1.51172V1H150.09Z" fill="white"/>
<path d="M0 21.1591L5.21416 18.68L0.460132 15.4039L0 21.1591ZM38.0453 4.66111C33.8234 4.2773 27.2643 4.49438 20.5643 6.2492C13.8659 8.00364 6.97936 11.3081 2.16668 17.137L2.93781 17.7737C7.57063 12.1626 14.2384 8.9398 20.8177 7.21657C27.3955 5.49373 33.8375 5.28271 37.9547 5.657L38.0453 4.66111Z" fill="white"/>
</svg>
