<svg width="266" height="38" viewBox="0 0 266 38" fill="none" xmlns="http://www.w3.org/2000/svg">
<path d="M11.1152 22.3604L15.7441 6.67188H17.1943L16.0225 11.3301L11.0859 28H9.69434L11.1152 22.3604ZM5.73926 6.67188L9.63574 22.2139L10.8076 28H9.35742L3.89355 6.67188H5.73926ZM23.4346 22.2139L27.2725 6.67188H29.1182L23.6689 28H22.2188L23.4346 22.2139ZM17.3555 6.67188L21.9258 22.3604L23.332 28H21.9404L17.1064 11.3301L15.9199 6.67188H17.3555ZM33.9375 5.5V28H32.1943V5.5H33.9375ZM33.542 19.0938L32.7656 18.6543C32.8242 17.7168 33.0146 16.8379 33.3369 16.0176C33.6592 15.1973 34.0938 14.4746 34.6406 13.8496C35.1973 13.2246 35.8467 12.7363 36.5889 12.3848C37.3408 12.0332 38.1709 11.8574 39.0791 11.8574C39.8701 11.8574 40.5781 11.9648 41.2031 12.1797C41.8281 12.3945 42.3604 12.7363 42.7998 13.2051C43.2393 13.6738 43.5713 14.2744 43.7959 15.0068C44.0303 15.7393 44.1475 16.6328 44.1475 17.6875V28H42.3896V17.6729C42.3896 16.5791 42.2383 15.7246 41.9355 15.1094C41.6328 14.4844 41.2031 14.04 40.6465 13.7764C40.0898 13.5127 39.4307 13.3809 38.6689 13.3809C37.8291 13.3809 37.0918 13.5664 36.457 13.9375C35.832 14.2988 35.3047 14.7725 34.875 15.3584C34.4551 15.9346 34.1328 16.5547 33.9082 17.2188C33.6836 17.873 33.5615 18.498 33.542 19.0938ZM58.2979 25.1582V16.9844C58.2979 16.2324 58.1416 15.583 57.8291 15.0361C57.5166 14.4893 57.0576 14.0693 56.4521 13.7764C55.8467 13.4834 55.0996 13.3369 54.2109 13.3369C53.3906 13.3369 52.6582 13.4834 52.0137 13.7764C51.3789 14.0596 50.876 14.4453 50.5049 14.9336C50.1436 15.4121 49.9629 15.9443 49.9629 16.5303L48.2051 16.5156C48.2051 15.9199 48.3516 15.3438 48.6445 14.7871C48.9375 14.2305 49.3525 13.7324 49.8896 13.293C50.4268 12.8535 51.0664 12.5068 51.8086 12.2529C52.5605 11.9893 53.3857 11.8574 54.2842 11.8574C55.417 11.8574 56.4131 12.0479 57.2725 12.4287C58.1416 12.8096 58.8203 13.3809 59.3086 14.1426C59.7969 14.9043 60.041 15.8613 60.041 17.0137V24.6748C60.041 25.2217 60.0801 25.7881 60.1582 26.374C60.2461 26.96 60.3682 27.4434 60.5244 27.8242V28H58.6641C58.5469 27.6484 58.4541 27.209 58.3857 26.6816C58.3271 26.1445 58.2979 25.6367 58.2979 25.1582ZM58.708 18.7715L58.7373 20.1191H55.2949C54.3965 20.1191 53.5908 20.2021 52.8779 20.3682C52.1748 20.5244 51.5791 20.7588 51.0908 21.0713C50.6025 21.374 50.2266 21.7402 49.9629 22.1699C49.709 22.5996 49.582 23.0879 49.582 23.6348C49.582 24.2012 49.7236 24.7188 50.0068 25.1875C50.2998 25.6562 50.71 26.0322 51.2373 26.3154C51.7744 26.5889 52.4092 26.7256 53.1416 26.7256C54.1182 26.7256 54.9775 26.5449 55.7197 26.1836C56.4717 25.8223 57.0918 25.3486 57.5801 24.7627C58.0684 24.1768 58.3955 23.5371 58.5615 22.8438L59.3232 23.8545C59.1963 24.3428 58.9619 24.8457 58.6201 25.3633C58.2881 25.8711 57.8535 26.3496 57.3164 26.7988C56.7793 27.2383 56.1445 27.5996 55.4121 27.8828C54.6895 28.1562 53.8691 28.293 52.9512 28.293C51.916 28.293 51.0127 28.0977 50.2412 27.707C49.4795 27.3164 48.8838 26.7842 48.4541 26.1104C48.0342 25.4268 47.8242 24.6553 47.8242 23.7959C47.8242 23.0146 47.9902 22.3164 48.3223 21.7012C48.6543 21.0762 49.1328 20.5488 49.7578 20.1191C50.3926 19.6797 51.1543 19.3477 52.043 19.123C52.9414 18.8887 53.9473 18.7715 55.0605 18.7715H58.708ZM70.7344 12.1504V13.5859H62.7949V12.1504H70.7344ZM65.71 8.07812H67.4531V24.1475C67.4531 24.8799 67.5508 25.4316 67.7461 25.8027C67.9414 26.1738 68.1953 26.4229 68.5078 26.5498C68.8203 26.6768 69.1572 26.7402 69.5186 26.7402C69.7822 26.7402 70.0361 26.7256 70.2803 26.6963C70.5244 26.6572 70.7441 26.6182 70.9395 26.5791L71.0127 28.0586C70.7979 28.127 70.5195 28.1807 70.1777 28.2197C69.8359 28.2686 69.4941 28.293 69.1523 28.293C68.4785 28.293 67.8828 28.1709 67.3652 27.9268C66.8477 27.6729 66.4424 27.2432 66.1494 26.6377C65.8564 26.0225 65.71 25.1875 65.71 24.1328V8.07812ZM83.4785 5.5V28H81.7354V5.5H83.4785ZM83.083 19.0938L82.3066 18.6543C82.3652 17.7168 82.5557 16.8379 82.8779 16.0176C83.2002 15.1973 83.6348 14.4746 84.1816 13.8496C84.7383 13.2246 85.3877 12.7363 86.1299 12.3848C86.8818 12.0332 87.7119 11.8574 88.6201 11.8574C89.4111 11.8574 90.1191 11.9648 90.7441 12.1797C91.3691 12.3945 91.9014 12.7363 92.3408 13.2051C92.7803 13.6738 93.1123 14.2744 93.3369 15.0068C93.5713 15.7393 93.6885 16.6328 93.6885 17.6875V28H91.9307V17.6729C91.9307 16.5791 91.7793 15.7246 91.4766 15.1094C91.1738 14.4844 90.7441 14.04 90.1875 13.7764C89.6309 13.5127 88.9717 13.3809 88.21 13.3809C87.3701 13.3809 86.6328 13.5664 85.998 13.9375C85.373 14.2988 84.8457 14.7725 84.416 15.3584C83.9961 15.9346 83.6738 16.5547 83.4492 17.2188C83.2246 17.873 83.1025 18.498 83.083 19.0938ZM107.839 25.1582V16.9844C107.839 16.2324 107.683 15.583 107.37 15.0361C107.058 14.4893 106.599 14.0693 105.993 13.7764C105.388 13.4834 104.641 13.3369 103.752 13.3369C102.932 13.3369 102.199 13.4834 101.555 13.7764C100.92 14.0596 100.417 14.4453 100.046 14.9336C99.6846 15.4121 99.5039 15.9443 99.5039 16.5303L97.7461 16.5156C97.7461 15.9199 97.8926 15.3438 98.1855 14.7871C98.4785 14.2305 98.8936 13.7324 99.4307 13.293C99.9678 12.8535 100.607 12.5068 101.35 12.2529C102.102 11.9893 102.927 11.8574 103.825 11.8574C104.958 11.8574 105.954 12.0479 106.813 12.4287C107.683 12.8096 108.361 13.3809 108.85 14.1426C109.338 14.9043 109.582 15.8613 109.582 17.0137V24.6748C109.582 25.2217 109.621 25.7881 109.699 26.374C109.787 26.96 109.909 27.4434 110.065 27.8242V28H108.205C108.088 27.6484 107.995 27.209 107.927 26.6816C107.868 26.1445 107.839 25.6367 107.839 25.1582ZM108.249 18.7715L108.278 20.1191H104.836C103.938 20.1191 103.132 20.2021 102.419 20.3682C101.716 20.5244 101.12 20.7588 100.632 21.0713C100.144 21.374 99.7676 21.7402 99.5039 22.1699C99.25 22.5996 99.123 23.0879 99.123 23.6348C99.123 24.2012 99.2646 24.7188 99.5479 25.1875C99.8408 25.6562 100.251 26.0322 100.778 26.3154C101.315 26.5889 101.95 26.7256 102.683 26.7256C103.659 26.7256 104.519 26.5449 105.261 26.1836C106.013 25.8223 106.633 25.3486 107.121 24.7627C107.609 24.1768 107.937 23.5371 108.103 22.8438L108.864 23.8545C108.737 24.3428 108.503 24.8457 108.161 25.3633C107.829 25.8711 107.395 26.3496 106.857 26.7988C106.32 27.2383 105.686 27.5996 104.953 27.8828C104.23 28.1562 103.41 28.293 102.492 28.293C101.457 28.293 100.554 28.0977 99.7822 27.707C99.0205 27.3164 98.4248 26.7842 97.9951 26.1104C97.5752 25.4268 97.3652 24.6553 97.3652 23.7959C97.3652 23.0146 97.5312 22.3164 97.8633 21.7012C98.1953 21.0762 98.6738 20.5488 99.2988 20.1191C99.9336 19.6797 100.695 19.3477 101.584 19.123C102.482 18.8887 103.488 18.7715 104.602 18.7715H108.249ZM118.723 26.3154L123.806 12.1504H125.607L119.675 28H118.4L118.723 26.3154ZM114.123 12.1504L119.265 26.3594L119.543 28H118.254L112.307 12.1504H114.123ZM134.411 28.293C133.376 28.293 132.424 28.1025 131.555 27.7217C130.695 27.3408 129.943 26.8037 129.299 26.1104C128.664 25.417 128.171 24.5967 127.819 23.6494C127.478 22.6924 127.307 21.6475 127.307 20.5146V19.8848C127.307 18.6641 127.487 17.5605 127.849 16.5742C128.21 15.5879 128.708 14.7432 129.343 14.04C129.978 13.3369 130.7 12.7998 131.511 12.4287C132.331 12.0479 133.19 11.8574 134.089 11.8574C135.095 11.8574 135.988 12.0381 136.77 12.3994C137.551 12.751 138.205 13.2539 138.732 13.9082C139.27 14.5527 139.675 15.3193 139.948 16.208C140.222 17.0869 140.358 18.0586 140.358 19.123V20.1924H128.361V18.6982H138.615V18.4932C138.596 17.6045 138.415 16.7744 138.073 16.0029C137.741 15.2217 137.243 14.5869 136.579 14.0986C135.915 13.6104 135.085 13.3662 134.089 13.3662C133.347 13.3662 132.663 13.5225 132.038 13.835C131.423 14.1475 130.891 14.5967 130.441 15.1826C130.002 15.7588 129.66 16.4473 129.416 17.248C129.182 18.0391 129.064 18.918 129.064 19.8848V20.5146C129.064 21.3936 129.191 22.2139 129.445 22.9756C129.709 23.7275 130.08 24.3916 130.559 24.9678C131.047 25.5439 131.623 25.9932 132.287 26.3154C132.951 26.6377 133.684 26.7988 134.484 26.7988C135.422 26.7988 136.252 26.6279 136.975 26.2861C137.697 25.9346 138.347 25.3828 138.923 24.6309L140.021 25.4805C139.68 25.9883 139.25 26.457 138.732 26.8867C138.225 27.3164 137.614 27.6582 136.901 27.9121C136.188 28.166 135.358 28.293 134.411 28.293ZM153.747 6.67188V28H151.945V6.67188H153.747ZM176.76 24.9238V5.5H178.518V28H176.877L176.76 24.9238ZM165.759 20.2363V19.9287C165.759 18.6982 165.9 17.5898 166.184 16.6035C166.467 15.6074 166.872 14.7578 167.399 14.0547C167.937 13.3418 168.581 12.7998 169.333 12.4287C170.085 12.0479 170.935 11.8574 171.882 11.8574C172.81 11.8574 173.63 12.0088 174.343 12.3115C175.056 12.6143 175.666 13.0488 176.174 13.6152C176.691 14.1816 177.106 14.8555 177.419 15.6367C177.741 16.418 177.976 17.2871 178.122 18.2441V22.1553C178.005 23.0537 177.79 23.8789 177.478 24.6309C177.165 25.373 176.75 26.0225 176.232 26.5791C175.715 27.126 175.09 27.5508 174.357 27.8535C173.635 28.1465 172.8 28.293 171.853 28.293C170.915 28.293 170.07 28.0977 169.318 27.707C168.566 27.3164 167.927 26.7646 167.399 26.0518C166.872 25.3291 166.467 24.4746 166.184 23.4883C165.9 22.502 165.759 21.418 165.759 20.2363ZM167.517 19.9287V20.2363C167.517 21.1641 167.609 22.0234 167.795 22.8145C167.98 23.6055 168.264 24.2939 168.645 24.8799C169.025 25.4658 169.509 25.9248 170.095 26.2568C170.681 26.5889 171.374 26.7549 172.175 26.7549C173.181 26.7549 174.025 26.5645 174.709 26.1836C175.393 25.793 175.939 25.2803 176.35 24.6455C176.76 24.001 177.058 23.2979 177.243 22.5361V17.9805C177.126 17.4629 176.955 16.9355 176.73 16.3984C176.506 15.8613 176.198 15.3682 175.808 14.9189C175.427 14.46 174.938 14.0938 174.343 13.8203C173.757 13.5371 173.044 13.3955 172.204 13.3955C171.394 13.3955 170.695 13.5615 170.109 13.8936C169.523 14.2256 169.035 14.6895 168.645 15.2852C168.264 15.8711 167.98 16.5596 167.795 17.3506C167.609 18.1416 167.517 19.001 167.517 19.9287ZM182.165 20.3242V19.8408C182.165 18.6885 182.331 17.624 182.663 16.6475C182.995 15.6709 183.469 14.8262 184.084 14.1133C184.709 13.4004 185.456 12.8486 186.325 12.458C187.194 12.0576 188.161 11.8574 189.226 11.8574C190.3 11.8574 191.271 12.0576 192.141 12.458C193.01 12.8486 193.757 13.4004 194.382 14.1133C195.007 14.8262 195.485 15.6709 195.817 16.6475C196.149 17.624 196.315 18.6885 196.315 19.8408V20.3242C196.315 21.4766 196.149 22.541 195.817 23.5176C195.485 24.4844 195.007 25.3242 194.382 26.0371C193.767 26.75 193.024 27.3066 192.155 27.707C191.286 28.0977 190.319 28.293 189.255 28.293C188.181 28.293 187.209 28.0977 186.34 27.707C185.471 27.3066 184.724 26.75 184.099 26.0371C183.474 25.3242 182.995 24.4844 182.663 23.5176C182.331 22.541 182.165 21.4766 182.165 20.3242ZM183.908 19.8408V20.3242C183.908 21.1934 184.025 22.0186 184.26 22.7998C184.494 23.5713 184.836 24.2598 185.285 24.8652C185.734 25.4609 186.291 25.9297 186.955 26.2715C187.619 26.6133 188.386 26.7842 189.255 26.7842C190.114 26.7842 190.871 26.6133 191.525 26.2715C192.189 25.9297 192.746 25.4609 193.195 24.8652C193.645 24.2598 193.981 23.5713 194.206 22.7998C194.44 22.0186 194.558 21.1934 194.558 20.3242V19.8408C194.558 18.9814 194.44 18.166 194.206 17.3945C193.981 16.623 193.64 15.9346 193.181 15.3291C192.731 14.7236 192.175 14.2451 191.511 13.8936C190.847 13.542 190.085 13.3662 189.226 13.3662C188.366 13.3662 187.604 13.542 186.94 13.8936C186.286 14.2451 185.729 14.7236 185.271 15.3291C184.821 15.9346 184.479 16.623 184.245 17.3945C184.021 18.166 183.908 18.9814 183.908 19.8408ZM201.691 15.5342V28H199.948V12.1504H201.618L201.691 15.5342ZM201.296 19.0938L200.52 18.6543C200.578 17.7168 200.769 16.8379 201.091 16.0176C201.413 15.1973 201.848 14.4746 202.395 13.8496C202.951 13.2246 203.601 12.7363 204.343 12.3848C205.095 12.0332 205.925 11.8574 206.833 11.8574C207.624 11.8574 208.332 11.9648 208.957 12.1797C209.582 12.3945 210.114 12.7363 210.554 13.2051C210.993 13.6738 211.325 14.2744 211.55 15.0068C211.784 15.7393 211.901 16.6328 211.901 17.6875V28H210.144V17.6729C210.144 16.5791 209.992 15.7246 209.689 15.1094C209.387 14.4844 208.957 14.04 208.4 13.7764C207.844 13.5127 207.185 13.3809 206.423 13.3809C205.583 13.3809 204.846 13.5664 204.211 13.9375C203.586 14.2988 203.059 14.7725 202.629 15.3584C202.209 15.9346 201.887 16.5547 201.662 17.2188C201.438 17.873 201.315 18.498 201.296 19.0938ZM222.565 28.293C221.53 28.293 220.578 28.1025 219.709 27.7217C218.85 27.3408 218.098 26.8037 217.453 26.1104C216.818 25.417 216.325 24.5967 215.974 23.6494C215.632 22.6924 215.461 21.6475 215.461 20.5146V19.8848C215.461 18.6641 215.642 17.5605 216.003 16.5742C216.364 15.5879 216.862 14.7432 217.497 14.04C218.132 13.3369 218.854 12.7998 219.665 12.4287C220.485 12.0479 221.345 11.8574 222.243 11.8574C223.249 11.8574 224.143 12.0381 224.924 12.3994C225.705 12.751 226.359 13.2539 226.887 13.9082C227.424 14.5527 227.829 15.3193 228.103 16.208C228.376 17.0869 228.513 18.0586 228.513 19.123V20.1924H216.516V18.6982H226.77V18.4932C226.75 17.6045 226.569 16.7744 226.228 16.0029C225.896 15.2217 225.397 14.5869 224.733 14.0986C224.069 13.6104 223.239 13.3662 222.243 13.3662C221.501 13.3662 220.817 13.5225 220.192 13.835C219.577 14.1475 219.045 14.5967 218.596 15.1826C218.156 15.7588 217.814 16.4473 217.57 17.248C217.336 18.0391 217.219 18.918 217.219 19.8848V20.5146C217.219 21.3936 217.346 22.2139 217.6 22.9756C217.863 23.7275 218.234 24.3916 218.713 24.9678C219.201 25.5439 219.777 25.9932 220.441 26.3154C221.105 26.6377 221.838 26.7988 222.639 26.7988C223.576 26.7988 224.406 26.6279 225.129 26.2861C225.852 25.9346 226.501 25.3828 227.077 24.6309L228.176 25.4805C227.834 25.9883 227.404 26.457 226.887 26.8867C226.379 27.3164 225.769 27.6582 225.056 27.9121C224.343 28.166 223.513 28.293 222.565 28.293ZM236.936 22.0674H235.178C235.188 21.2373 235.271 20.5342 235.427 19.958C235.583 19.3818 235.837 18.8496 236.188 18.3613C236.54 17.873 237.014 17.3359 237.609 16.75C238.127 16.2324 238.586 15.7539 238.986 15.3145C239.387 14.8652 239.699 14.3721 239.924 13.835C240.158 13.2979 240.275 12.6387 240.275 11.8574C240.275 11.0859 240.139 10.4072 239.865 9.82129C239.592 9.23535 239.182 8.77637 238.635 8.44434C238.088 8.1123 237.404 7.94629 236.584 7.94629C235.832 7.94629 235.158 8.09277 234.562 8.38574C233.977 8.67871 233.513 9.10352 233.171 9.66016C232.839 10.207 232.663 10.8711 232.644 11.6523H230.9C230.92 10.5391 231.184 9.5918 231.691 8.81055C232.209 8.01953 232.893 7.41895 233.742 7.00879C234.602 6.58887 235.549 6.37891 236.584 6.37891C237.756 6.37891 238.742 6.6084 239.543 7.06738C240.354 7.52637 240.969 8.16602 241.389 8.98633C241.818 9.80664 242.033 10.7588 242.033 11.8428C242.033 12.7119 241.887 13.498 241.594 14.2012C241.301 14.8945 240.896 15.5488 240.378 16.1641C239.86 16.7793 239.26 17.3994 238.576 18.0244C237.951 18.5615 237.521 19.1768 237.287 19.8701C237.053 20.5537 236.936 21.2861 236.936 22.0674ZM234.943 26.96C234.943 26.6279 235.051 26.3496 235.266 26.125C235.48 25.8906 235.773 25.7734 236.145 25.7734C236.516 25.7734 236.809 25.8906 237.023 26.125C237.248 26.3496 237.36 26.6279 237.36 26.96C237.36 27.2822 237.248 27.5605 237.023 27.7949C236.809 28.0195 236.516 28.1318 236.145 28.1318C235.773 28.1318 235.48 28.0195 235.266 27.7949C235.051 27.5605 234.943 27.2822 234.943 26.96Z" fill="white"/>
<path d="M0.333333 35C0.333333 36.4728 1.52724 37.6667 3 37.6667C4.47276 37.6667 5.66667 36.4728 5.66667 35C5.66667 33.5272 4.47276 32.3333 3 32.3333C1.52724 32.3333 0.333333 33.5272 0.333333 35ZM260.333 35C260.333 36.4728 261.527 37.6667 263 37.6667C264.473 37.6667 265.667 36.4728 265.667 35C265.667 33.5272 264.473 32.3333 263 32.3333C261.527 32.3333 260.333 33.5272 260.333 35ZM3 35.5H263V34.5H3V35.5Z" fill="white"/>
</svg>
