<svg width="266" height="38" viewBox="0 0 266 38" fill="none" xmlns="http://www.w3.org/2000/svg">
<path d="M11.1152 22.3604L15.7441 6.67188H17.1943L16.0225 11.3301L11.0859 28H9.69434L11.1152 22.3604ZM5.73926 6.67188L9.63574 22.2139L10.8076 28H9.35742L3.89355 6.67188H5.73926ZM23.4346 22.2139L27.2725 6.67188H29.1182L23.6689 28H22.2188L23.4346 22.2139ZM17.3555 6.67188L21.9258 22.3604L23.332 28H21.9404L17.1064 11.3301L15.9199 6.67188H17.3555ZM33.9375 5.5V28H32.1943V5.5H33.9375ZM33.542 19.0938L32.7656 18.6543C32.8242 17.7168 33.0146 16.8379 33.3369 16.0176C33.6592 15.1973 34.0938 14.4746 34.6406 13.8496C35.1973 13.2246 35.8467 12.7363 36.5889 12.3848C37.3408 12.0332 38.1709 11.8574 39.0791 11.8574C39.8701 11.8574 40.5781 11.9648 41.2031 12.1797C41.8281 12.3945 42.3604 12.7363 42.7998 13.2051C43.2393 13.6738 43.5713 14.2744 43.7959 15.0068C44.0303 15.7393 44.1475 16.6328 44.1475 17.6875V28H42.3896V17.6729C42.3896 16.5791 42.2383 15.7246 41.9355 15.1094C41.6328 14.4844 41.2031 14.04 40.6465 13.7764C40.0898 13.5127 39.4307 13.3809 38.6689 13.3809C37.8291 13.3809 37.0918 13.5664 36.457 13.9375C35.832 14.2988 35.3047 14.7725 34.875 15.3584C34.4551 15.9346 34.1328 16.5547 33.9082 17.2188C33.6836 17.873 33.5615 18.498 33.542 19.0938ZM54.7822 28.293C53.7471 28.293 52.7949 28.1025 51.9258 27.7217C51.0664 27.3408 50.3145 26.8037 49.6699 26.1104C49.0352 25.417 48.542 24.5967 48.1904 23.6494C47.8486 22.6924 47.6777 21.6475 47.6777 20.5146V19.8848C47.6777 18.6641 47.8584 17.5605 48.2197 16.5742C48.5811 15.5879 49.0791 14.7432 49.7139 14.04C50.3486 13.3369 51.0713 12.7998 51.8818 12.4287C52.7021 12.0479 53.5615 11.8574 54.46 11.8574C55.4658 11.8574 56.3594 12.0381 57.1406 12.3994C57.9219 12.751 58.5762 13.2539 59.1035 13.9082C59.6406 14.5527 60.0459 15.3193 60.3193 16.208C60.5928 17.0869 60.7295 18.0586 60.7295 19.123V20.1924H48.7324V18.6982H58.9863V18.4932C58.9668 17.6045 58.7861 16.7744 58.4443 16.0029C58.1123 15.2217 57.6143 14.5869 56.9502 14.0986C56.2861 13.6104 55.4561 13.3662 54.46 13.3662C53.7178 13.3662 53.0342 13.5225 52.4092 13.835C51.7939 14.1475 51.2617 14.5967 50.8125 15.1826C50.373 15.7588 50.0312 16.4473 49.7871 17.248C49.5527 18.0391 49.4355 18.918 49.4355 19.8848V20.5146C49.4355 21.3936 49.5625 22.2139 49.8164 22.9756C50.0801 23.7275 50.4512 24.3916 50.9297 24.9678C51.418 25.5439 51.9941 25.9932 52.6582 26.3154C53.3223 26.6377 54.0547 26.7988 54.8555 26.7988C55.793 26.7988 56.623 26.6279 57.3457 26.2861C58.0684 25.9346 58.7178 25.3828 59.2939 24.6309L60.3926 25.4805C60.0508 25.9883 59.6211 26.457 59.1035 26.8867C58.5957 27.3164 57.9854 27.6582 57.2725 27.9121C56.5596 28.166 55.7295 28.293 54.7822 28.293ZM65.9297 14.7725V28H64.1865V12.1504H65.8857L65.9297 14.7725ZM71.54 12.0332L71.4961 13.6445C71.3008 13.6152 71.1104 13.5908 70.9248 13.5713C70.7393 13.5518 70.5391 13.542 70.3242 13.542C69.5625 13.542 68.8936 13.6836 68.3174 13.9668C67.751 14.2402 67.2725 14.626 66.8818 15.124C66.4912 15.6123 66.1934 16.1885 65.9883 16.8525C65.7832 17.5068 65.666 18.21 65.6367 18.9619L64.9922 19.2109C64.9922 18.1758 65.0996 17.2139 65.3145 16.3252C65.5293 15.4365 65.8564 14.6602 66.2959 13.9961C66.7451 13.3223 67.3066 12.7998 67.9805 12.4287C68.6641 12.0479 69.4648 11.8574 70.3828 11.8574C70.6074 11.8574 70.8271 11.877 71.042 11.916C71.2666 11.9453 71.4326 11.9844 71.54 12.0332ZM80.124 28.293C79.0889 28.293 78.1367 28.1025 77.2676 27.7217C76.4082 27.3408 75.6562 26.8037 75.0117 26.1104C74.377 25.417 73.8838 24.5967 73.5322 23.6494C73.1904 22.6924 73.0195 21.6475 73.0195 20.5146V19.8848C73.0195 18.6641 73.2002 17.5605 73.5615 16.5742C73.9229 15.5879 74.4209 14.7432 75.0557 14.04C75.6904 13.3369 76.4131 12.7998 77.2236 12.4287C78.0439 12.0479 78.9033 11.8574 79.8018 11.8574C80.8076 11.8574 81.7012 12.0381 82.4824 12.3994C83.2637 12.751 83.918 13.2539 84.4453 13.9082C84.9824 14.5527 85.3877 15.3193 85.6611 16.208C85.9346 17.0869 86.0713 18.0586 86.0713 19.123V20.1924H74.0742V18.6982H84.3281V18.4932C84.3086 17.6045 84.1279 16.7744 83.7861 16.0029C83.4541 15.2217 82.9561 14.5869 82.292 14.0986C81.6279 13.6104 80.7979 13.3662 79.8018 13.3662C79.0596 13.3662 78.376 13.5225 77.751 13.835C77.1357 14.1475 76.6035 14.5967 76.1543 15.1826C75.7148 15.7588 75.373 16.4473 75.1289 17.248C74.8945 18.0391 74.7773 18.918 74.7773 19.8848V20.5146C74.7773 21.3936 74.9043 22.2139 75.1582 22.9756C75.4219 23.7275 75.793 24.3916 76.2715 24.9678C76.7598 25.5439 77.3359 25.9932 78 26.3154C78.6641 26.6377 79.3965 26.7988 80.1973 26.7988C81.1348 26.7988 81.9648 26.6279 82.6875 26.2861C83.4102 25.9346 84.0596 25.3828 84.6357 24.6309L85.7344 25.4805C85.3926 25.9883 84.9629 26.457 84.4453 26.8867C83.9375 27.3164 83.3271 27.6582 82.6143 27.9121C81.9014 28.166 81.0713 28.293 80.124 28.293ZM102.844 12.1504V13.5859H94.9043V12.1504H102.844ZM97.8193 8.07812H99.5625V24.1475C99.5625 24.8799 99.6602 25.4316 99.8555 25.8027C100.051 26.1738 100.305 26.4229 100.617 26.5498C100.93 26.6768 101.267 26.7402 101.628 26.7402C101.892 26.7402 102.146 26.7256 102.39 26.6963C102.634 26.6572 102.854 26.6182 103.049 26.5791L103.122 28.0586C102.907 28.127 102.629 28.1807 102.287 28.2197C101.945 28.2686 101.604 28.293 101.262 28.293C100.588 28.293 99.9922 28.1709 99.4746 27.9268C98.957 27.6729 98.5518 27.2432 98.2588 26.6377C97.9658 26.0225 97.8193 25.1875 97.8193 24.1328V8.07812ZM105.261 20.3242V19.8408C105.261 18.6885 105.427 17.624 105.759 16.6475C106.091 15.6709 106.564 14.8262 107.18 14.1133C107.805 13.4004 108.552 12.8486 109.421 12.458C110.29 12.0576 111.257 11.8574 112.321 11.8574C113.396 11.8574 114.367 12.0576 115.236 12.458C116.105 12.8486 116.853 13.4004 117.478 14.1133C118.103 14.8262 118.581 15.6709 118.913 16.6475C119.245 17.624 119.411 18.6885 119.411 19.8408V20.3242C119.411 21.4766 119.245 22.541 118.913 23.5176C118.581 24.4844 118.103 25.3242 117.478 26.0371C116.862 26.75 116.12 27.3066 115.251 27.707C114.382 28.0977 113.415 28.293 112.351 28.293C111.276 28.293 110.305 28.0977 109.436 27.707C108.566 27.3066 107.819 26.75 107.194 26.0371C106.569 25.3242 106.091 24.4844 105.759 23.5176C105.427 22.541 105.261 21.4766 105.261 20.3242ZM107.004 19.8408V20.3242C107.004 21.1934 107.121 22.0186 107.355 22.7998C107.59 23.5713 107.932 24.2598 108.381 24.8652C108.83 25.4609 109.387 25.9297 110.051 26.2715C110.715 26.6133 111.481 26.7842 112.351 26.7842C113.21 26.7842 113.967 26.6133 114.621 26.2715C115.285 25.9297 115.842 25.4609 116.291 24.8652C116.74 24.2598 117.077 23.5713 117.302 22.7998C117.536 22.0186 117.653 21.1934 117.653 20.3242V19.8408C117.653 18.9814 117.536 18.166 117.302 17.3945C117.077 16.623 116.735 15.9346 116.276 15.3291C115.827 14.7236 115.271 14.2451 114.606 13.8936C113.942 13.542 113.181 13.3662 112.321 13.3662C111.462 13.3662 110.7 13.542 110.036 13.8936C109.382 14.2451 108.825 14.7236 108.366 15.3291C107.917 15.9346 107.575 16.623 107.341 17.3945C107.116 18.166 107.004 18.9814 107.004 19.8408ZM133.166 28H131.423V10.4805C131.423 9.33789 131.633 8.37598 132.053 7.59473C132.482 6.80371 133.088 6.20801 133.869 5.80762C134.66 5.39746 135.598 5.19238 136.682 5.19238C137.336 5.19238 138 5.26562 138.674 5.41211C139.348 5.55859 140.026 5.77344 140.71 6.05664L140.432 7.58008C139.914 7.35547 139.372 7.16992 138.806 7.02344C138.239 6.87695 137.565 6.80371 136.784 6.80371C135.593 6.80371 134.689 7.11621 134.074 7.74121C133.469 8.36621 133.166 9.2793 133.166 10.4805V28ZM136.872 12.1504V13.5859H128.786V12.1504H136.872ZM141.662 12.1504V28H139.919V12.1504H141.662ZM148.254 15.5342V28H146.511V12.1504H148.181L148.254 15.5342ZM147.858 19.0938L147.082 18.6543C147.141 17.7168 147.331 16.8379 147.653 16.0176C147.976 15.1973 148.41 14.4746 148.957 13.8496C149.514 13.2246 150.163 12.7363 150.905 12.3848C151.657 12.0332 152.487 11.8574 153.396 11.8574C154.187 11.8574 154.895 11.9648 155.52 12.1797C156.145 12.3945 156.677 12.7363 157.116 13.2051C157.556 13.6738 157.888 14.2744 158.112 15.0068C158.347 15.7393 158.464 16.6328 158.464 17.6875V28H156.706V17.6729C156.706 16.5791 156.555 15.7246 156.252 15.1094C155.949 14.4844 155.52 14.04 154.963 13.7764C154.406 13.5127 153.747 13.3809 152.985 13.3809C152.146 13.3809 151.408 13.5664 150.773 13.9375C150.148 14.2988 149.621 14.7725 149.191 15.3584C148.771 15.9346 148.449 16.5547 148.225 17.2188C148 17.873 147.878 18.498 147.858 19.0938ZM173.303 24.9238V5.5H175.061V28H173.42L173.303 24.9238ZM162.302 20.2363V19.9287C162.302 18.6982 162.443 17.5898 162.727 16.6035C163.01 15.6074 163.415 14.7578 163.942 14.0547C164.479 13.3418 165.124 12.7998 165.876 12.4287C166.628 12.0479 167.478 11.8574 168.425 11.8574C169.353 11.8574 170.173 12.0088 170.886 12.3115C171.599 12.6143 172.209 13.0488 172.717 13.6152C173.234 14.1816 173.649 14.8555 173.962 15.6367C174.284 16.418 174.519 17.2871 174.665 18.2441V22.1553C174.548 23.0537 174.333 23.8789 174.021 24.6309C173.708 25.373 173.293 26.0225 172.775 26.5791C172.258 27.126 171.633 27.5508 170.9 27.8535C170.178 28.1465 169.343 28.293 168.396 28.293C167.458 28.293 166.613 28.0977 165.861 27.707C165.109 27.3164 164.47 26.7646 163.942 26.0518C163.415 25.3291 163.01 24.4746 162.727 23.4883C162.443 22.502 162.302 21.418 162.302 20.2363ZM164.06 19.9287V20.2363C164.06 21.1641 164.152 22.0234 164.338 22.8145C164.523 23.6055 164.807 24.2939 165.188 24.8799C165.568 25.4658 166.052 25.9248 166.638 26.2568C167.224 26.5889 167.917 26.7549 168.718 26.7549C169.724 26.7549 170.568 26.5645 171.252 26.1836C171.936 25.793 172.482 25.2803 172.893 24.6455C173.303 24.001 173.601 23.2979 173.786 22.5361V17.9805C173.669 17.4629 173.498 16.9355 173.273 16.3984C173.049 15.8613 172.741 15.3682 172.351 14.9189C171.97 14.46 171.481 14.0938 170.886 13.8203C170.3 13.5371 169.587 13.3955 168.747 13.3955C167.937 13.3955 167.238 13.5615 166.652 13.8936C166.066 14.2256 165.578 14.6895 165.188 15.2852C164.807 15.8711 164.523 16.5596 164.338 17.3506C164.152 18.1416 164.06 19.001 164.06 19.9287ZM188.654 15.4316V28H186.896V12.1504H188.581L188.654 15.4316ZM188.332 19.0938L187.482 18.6543C187.541 17.7168 187.717 16.8379 188.01 16.0176C188.312 15.1973 188.732 14.4746 189.27 13.8496C189.807 13.2246 190.451 12.7363 191.203 12.3848C191.955 12.0332 192.81 11.8574 193.767 11.8574C194.538 11.8574 195.236 11.9648 195.861 12.1797C196.496 12.3848 197.033 12.7119 197.473 13.1611C197.922 13.6006 198.269 14.1768 198.513 14.8896C198.757 15.6025 198.879 16.457 198.879 17.4531V28H197.136V17.5117C197.136 16.457 196.97 15.6318 196.638 15.0361C196.315 14.4404 195.861 14.0156 195.275 13.7617C194.699 13.5078 194.03 13.3809 193.269 13.3809C192.37 13.3809 191.608 13.5664 190.983 13.9375C190.368 14.2988 189.865 14.7725 189.475 15.3584C189.094 15.9346 188.811 16.5547 188.625 17.2188C188.439 17.873 188.342 18.498 188.332 19.0938ZM198.864 17.7168L197.692 17.7461C197.741 16.9746 197.917 16.2373 198.22 15.5342C198.532 14.8311 198.957 14.2061 199.494 13.6592C200.031 13.1025 200.671 12.6631 201.413 12.3408C202.165 12.0186 203.01 11.8574 203.947 11.8574C204.768 11.8574 205.5 11.9697 206.145 12.1943C206.789 12.4092 207.331 12.7559 207.771 13.2344C208.22 13.7031 208.562 14.3037 208.796 15.0361C209.03 15.7686 209.147 16.6475 209.147 17.6729V28H207.39V17.6582C207.39 16.5352 207.224 15.666 206.892 15.0508C206.569 14.4258 206.12 13.9912 205.544 13.7471C204.968 13.5029 204.294 13.3809 203.522 13.3809C202.761 13.3906 202.092 13.5322 201.516 13.8057C200.939 14.0693 200.456 14.4209 200.065 14.8604C199.685 15.29 199.392 15.7539 199.187 16.252C198.991 16.75 198.884 17.2383 198.864 17.7168ZM219.724 28.293C218.688 28.293 217.736 28.1025 216.867 27.7217C216.008 27.3408 215.256 26.8037 214.611 26.1104C213.977 25.417 213.483 24.5967 213.132 23.6494C212.79 22.6924 212.619 21.6475 212.619 20.5146V19.8848C212.619 18.6641 212.8 17.5605 213.161 16.5742C213.522 15.5879 214.021 14.7432 214.655 14.04C215.29 13.3369 216.013 12.7998 216.823 12.4287C217.644 12.0479 218.503 11.8574 219.401 11.8574C220.407 11.8574 221.301 12.0381 222.082 12.3994C222.863 12.751 223.518 13.2539 224.045 13.9082C224.582 14.5527 224.987 15.3193 225.261 16.208C225.534 17.0869 225.671 18.0586 225.671 19.123V20.1924H213.674V18.6982H223.928V18.4932C223.908 17.6045 223.728 16.7744 223.386 16.0029C223.054 15.2217 222.556 14.5869 221.892 14.0986C221.228 13.6104 220.397 13.3662 219.401 13.3662C218.659 13.3662 217.976 13.5225 217.351 13.835C216.735 14.1475 216.203 14.5967 215.754 15.1826C215.314 15.7588 214.973 16.4473 214.729 17.248C214.494 18.0391 214.377 18.918 214.377 19.8848V20.5146C214.377 21.3936 214.504 22.2139 214.758 22.9756C215.021 23.7275 215.393 24.3916 215.871 24.9678C216.359 25.5439 216.936 25.9932 217.6 26.3154C218.264 26.6377 218.996 26.7988 219.797 26.7988C220.734 26.7988 221.564 26.6279 222.287 26.2861C223.01 25.9346 223.659 25.3828 224.235 24.6309L225.334 25.4805C224.992 25.9883 224.562 26.457 224.045 26.8867C223.537 27.3164 222.927 27.6582 222.214 27.9121C221.501 28.166 220.671 28.293 219.724 28.293ZM234.094 22.0674H232.336C232.346 21.2373 232.429 20.5342 232.585 19.958C232.741 19.3818 232.995 18.8496 233.347 18.3613C233.698 17.873 234.172 17.3359 234.768 16.75C235.285 16.2324 235.744 15.7539 236.145 15.3145C236.545 14.8652 236.857 14.3721 237.082 13.835C237.316 13.2979 237.434 12.6387 237.434 11.8574C237.434 11.0859 237.297 10.4072 237.023 9.82129C236.75 9.23535 236.34 8.77637 235.793 8.44434C235.246 8.1123 234.562 7.94629 233.742 7.94629C232.99 7.94629 232.316 8.09277 231.721 8.38574C231.135 8.67871 230.671 9.10352 230.329 9.66016C229.997 10.207 229.821 10.8711 229.802 11.6523H228.059C228.078 10.5391 228.342 9.5918 228.85 8.81055C229.367 8.01953 230.051 7.41895 230.9 7.00879C231.76 6.58887 232.707 6.37891 233.742 6.37891C234.914 6.37891 235.9 6.6084 236.701 7.06738C237.512 7.52637 238.127 8.16602 238.547 8.98633C238.977 9.80664 239.191 10.7588 239.191 11.8428C239.191 12.7119 239.045 13.498 238.752 14.2012C238.459 14.8945 238.054 15.5488 237.536 16.1641C237.019 16.7793 236.418 17.3994 235.734 18.0244C235.109 18.5615 234.68 19.1768 234.445 19.8701C234.211 20.5537 234.094 21.2861 234.094 22.0674ZM232.102 26.96C232.102 26.6279 232.209 26.3496 232.424 26.125C232.639 25.8906 232.932 25.7734 233.303 25.7734C233.674 25.7734 233.967 25.8906 234.182 26.125C234.406 26.3496 234.519 26.6279 234.519 26.96C234.519 27.2822 234.406 27.5605 234.182 27.7949C233.967 28.0195 233.674 28.1318 233.303 28.1318C232.932 28.1318 232.639 28.0195 232.424 27.7949C232.209 27.5605 232.102 27.2822 232.102 26.96Z" fill="white"/>
<path d="M0.333333 35C0.333333 36.4728 1.52724 37.6667 3 37.6667C4.47276 37.6667 5.66667 36.4728 5.66667 35C5.66667 33.5272 4.47276 32.3333 3 32.3333C1.52724 32.3333 0.333333 33.5272 0.333333 35ZM260.333 35C260.333 36.4728 261.527 37.6667 263 37.6667C264.473 37.6667 265.667 36.4728 265.667 35C265.667 33.5272 264.473 32.3333 263 32.3333C261.527 32.3333 260.333 33.5272 260.333 35ZM3 35.5H263V34.5H3V35.5Z" fill="white"/>
</svg>
