<svg width="266" height="38" viewBox="0 0 266 38" fill="none" xmlns="http://www.w3.org/2000/svg">
<path d="M11.1152 22.3604L15.7441 6.67188H17.1943L16.0225 11.3301L11.0859 28H9.69434L11.1152 22.3604ZM5.73926 6.67188L9.63574 22.2139L10.8076 28H9.35742L3.89355 6.67188H5.73926ZM23.4346 22.2139L27.2725 6.67188H29.1182L23.6689 28H22.2188L23.4346 22.2139ZM17.3555 6.67188L21.9258 22.3604L23.332 28H21.9404L17.1064 11.3301L15.9199 6.67188H17.3555ZM33.9375 5.5V28H32.1943V5.5H33.9375ZM33.542 19.0938L32.7656 18.6543C32.8242 17.7168 33.0146 16.8379 33.3369 16.0176C33.6592 15.1973 34.0938 14.4746 34.6406 13.8496C35.1973 13.2246 35.8467 12.7363 36.5889 12.3848C37.3408 12.0332 38.1709 11.8574 39.0791 11.8574C39.8701 11.8574 40.5781 11.9648 41.2031 12.1797C41.8281 12.3945 42.3604 12.7363 42.7998 13.2051C43.2393 13.6738 43.5713 14.2744 43.7959 15.0068C44.0303 15.7393 44.1475 16.6328 44.1475 17.6875V28H42.3896V17.6729C42.3896 16.5791 42.2383 15.7246 41.9355 15.1094C41.6328 14.4844 41.2031 14.04 40.6465 13.7764C40.0898 13.5127 39.4307 13.3809 38.6689 13.3809C37.8291 13.3809 37.0918 13.5664 36.457 13.9375C35.832 14.2988 35.3047 14.7725 34.875 15.3584C34.4551 15.9346 34.1328 16.5547 33.9082 17.2188C33.6836 17.873 33.5615 18.498 33.542 19.0938ZM47.6924 20.3242V19.8408C47.6924 18.6885 47.8584 17.624 48.1904 16.6475C48.5225 15.6709 48.9961 14.8262 49.6113 14.1133C50.2363 13.4004 50.9834 12.8486 51.8525 12.458C52.7217 12.0576 53.6885 11.8574 54.7529 11.8574C55.8271 11.8574 56.7988 12.0576 57.668 12.458C58.5371 12.8486 59.2842 13.4004 59.9092 14.1133C60.5342 14.8262 61.0127 15.6709 61.3447 16.6475C61.6768 17.624 61.8428 18.6885 61.8428 19.8408V20.3242C61.8428 21.4766 61.6768 22.541 61.3447 23.5176C61.0127 24.4844 60.5342 25.3242 59.9092 26.0371C59.2939 26.75 58.5518 27.3066 57.6826 27.707C56.8135 28.0977 55.8467 28.293 54.7822 28.293C53.708 28.293 52.7363 28.0977 51.8672 27.707C50.998 27.3066 50.251 26.75 49.626 26.0371C49.001 25.3242 48.5225 24.4844 48.1904 23.5176C47.8584 22.541 47.6924 21.4766 47.6924 20.3242ZM49.4355 19.8408V20.3242C49.4355 21.1934 49.5527 22.0186 49.7871 22.7998C50.0215 23.5713 50.3633 24.2598 50.8125 24.8652C51.2617 25.4609 51.8184 25.9297 52.4824 26.2715C53.1465 26.6133 53.9131 26.7842 54.7822 26.7842C55.6416 26.7842 56.3984 26.6133 57.0527 26.2715C57.7168 25.9297 58.2734 25.4609 58.7227 24.8652C59.1719 24.2598 59.5088 23.5713 59.7334 22.7998C59.9678 22.0186 60.085 21.1934 60.085 20.3242V19.8408C60.085 18.9814 59.9678 18.166 59.7334 17.3945C59.5088 16.623 59.167 15.9346 58.708 15.3291C58.2588 14.7236 57.7021 14.2451 57.0381 13.8936C56.374 13.542 55.6123 13.3662 54.7529 13.3662C53.8936 13.3662 53.1318 13.542 52.4678 13.8936C51.8135 14.2451 51.2568 14.7236 50.7979 15.3291C50.3486 15.9346 50.0068 16.623 49.7725 17.3945C49.5479 18.166 49.4355 18.9814 49.4355 19.8408ZM82.4385 25.1582V16.9844C82.4385 16.2324 82.2822 15.583 81.9697 15.0361C81.6572 14.4893 81.1982 14.0693 80.5928 13.7764C79.9873 13.4834 79.2402 13.3369 78.3516 13.3369C77.5312 13.3369 76.7988 13.4834 76.1543 13.7764C75.5195 14.0596 75.0166 14.4453 74.6455 14.9336C74.2842 15.4121 74.1035 15.9443 74.1035 16.5303L72.3457 16.5156C72.3457 15.9199 72.4922 15.3438 72.7852 14.7871C73.0781 14.2305 73.4932 13.7324 74.0303 13.293C74.5674 12.8535 75.207 12.5068 75.9492 12.2529C76.7012 11.9893 77.5264 11.8574 78.4248 11.8574C79.5576 11.8574 80.5537 12.0479 81.4131 12.4287C82.2822 12.8096 82.9609 13.3809 83.4492 14.1426C83.9375 14.9043 84.1816 15.8613 84.1816 17.0137V24.6748C84.1816 25.2217 84.2207 25.7881 84.2988 26.374C84.3867 26.96 84.5088 27.4434 84.665 27.8242V28H82.8047C82.6875 27.6484 82.5947 27.209 82.5264 26.6816C82.4678 26.1445 82.4385 25.6367 82.4385 25.1582ZM82.8486 18.7715L82.8779 20.1191H79.4355C78.5371 20.1191 77.7314 20.2021 77.0186 20.3682C76.3154 20.5244 75.7197 20.7588 75.2314 21.0713C74.7432 21.374 74.3672 21.7402 74.1035 22.1699C73.8496 22.5996 73.7227 23.0879 73.7227 23.6348C73.7227 24.2012 73.8643 24.7188 74.1475 25.1875C74.4404 25.6562 74.8506 26.0322 75.3779 26.3154C75.915 26.5889 76.5498 26.7256 77.2822 26.7256C78.2588 26.7256 79.1182 26.5449 79.8604 26.1836C80.6123 25.8223 81.2324 25.3486 81.7207 24.7627C82.209 24.1768 82.5361 23.5371 82.7021 22.8438L83.4639 23.8545C83.3369 24.3428 83.1025 24.8457 82.7607 25.3633C82.4287 25.8711 81.9941 26.3496 81.457 26.7988C80.9199 27.2383 80.2852 27.5996 79.5527 27.8828C78.8301 28.1562 78.0098 28.293 77.0918 28.293C76.0566 28.293 75.1533 28.0977 74.3818 27.707C73.6201 27.3164 73.0244 26.7842 72.5947 26.1104C72.1748 25.4268 71.9648 24.6553 71.9648 23.7959C71.9648 23.0146 72.1309 22.3164 72.4629 21.7012C72.7949 21.0762 73.2734 20.5488 73.8984 20.1191C74.5332 19.6797 75.2949 19.3477 76.1836 19.123C77.082 18.8887 78.0879 18.7715 79.2012 18.7715H82.8486ZM90.5391 15.4316V28H88.7812V12.1504H90.4658L90.5391 15.4316ZM90.2168 19.0938L89.3672 18.6543C89.4258 17.7168 89.6016 16.8379 89.8945 16.0176C90.1973 15.1973 90.6172 14.4746 91.1543 13.8496C91.6914 13.2246 92.3359 12.7363 93.0879 12.3848C93.8398 12.0332 94.6943 11.8574 95.6514 11.8574C96.4229 11.8574 97.1211 11.9648 97.7461 12.1797C98.3809 12.3848 98.918 12.7119 99.3574 13.1611C99.8066 13.6006 100.153 14.1768 100.397 14.8896C100.642 15.6025 100.764 16.457 100.764 17.4531V28H99.0205V17.5117C99.0205 16.457 98.8545 15.6318 98.5225 15.0361C98.2002 14.4404 97.7461 14.0156 97.1602 13.7617C96.584 13.5078 95.915 13.3809 95.1533 13.3809C94.2549 13.3809 93.4932 13.5664 92.8682 13.9375C92.2529 14.2988 91.75 14.7725 91.3594 15.3584C90.9785 15.9346 90.6953 16.5547 90.5098 17.2188C90.3242 17.873 90.2266 18.498 90.2168 19.0938ZM100.749 17.7168L99.5771 17.7461C99.626 16.9746 99.8018 16.2373 100.104 15.5342C100.417 14.8311 100.842 14.2061 101.379 13.6592C101.916 13.1025 102.556 12.6631 103.298 12.3408C104.05 12.0186 104.895 11.8574 105.832 11.8574C106.652 11.8574 107.385 11.9697 108.029 12.1943C108.674 12.4092 109.216 12.7559 109.655 13.2344C110.104 13.7031 110.446 14.3037 110.681 15.0361C110.915 15.7686 111.032 16.6475 111.032 17.6729V28H109.274V17.6582C109.274 16.5352 109.108 15.666 108.776 15.0508C108.454 14.4258 108.005 13.9912 107.429 13.7471C106.853 13.5029 106.179 13.3809 105.407 13.3809C104.646 13.3906 103.977 13.5322 103.4 13.8057C102.824 14.0693 102.341 14.4209 101.95 14.8604C101.569 15.29 101.276 15.7539 101.071 16.252C100.876 16.75 100.769 17.2383 100.749 17.7168ZM125.417 6.67188V28H123.615V6.67188H125.417ZM135.773 22.0674H134.016C134.025 21.2373 134.108 20.5342 134.265 19.958C134.421 19.3818 134.675 18.8496 135.026 18.3613C135.378 17.873 135.852 17.3359 136.447 16.75C136.965 16.2324 137.424 15.7539 137.824 15.3145C138.225 14.8652 138.537 14.3721 138.762 13.835C138.996 13.2979 139.113 12.6387 139.113 11.8574C139.113 11.0859 138.977 10.4072 138.703 9.82129C138.43 9.23535 138.02 8.77637 137.473 8.44434C136.926 8.1123 136.242 7.94629 135.422 7.94629C134.67 7.94629 133.996 8.09277 133.4 8.38574C132.814 8.67871 132.351 9.10352 132.009 9.66016C131.677 10.207 131.501 10.8711 131.481 11.6523H129.738C129.758 10.5391 130.021 9.5918 130.529 8.81055C131.047 8.01953 131.73 7.41895 132.58 7.00879C133.439 6.58887 134.387 6.37891 135.422 6.37891C136.594 6.37891 137.58 6.6084 138.381 7.06738C139.191 7.52637 139.807 8.16602 140.227 8.98633C140.656 9.80664 140.871 10.7588 140.871 11.8428C140.871 12.7119 140.725 13.498 140.432 14.2012C140.139 14.8945 139.733 15.5488 139.216 16.1641C138.698 16.7793 138.098 17.3994 137.414 18.0244C136.789 18.5615 136.359 19.1768 136.125 19.8701C135.891 20.5537 135.773 21.2861 135.773 22.0674ZM133.781 26.96C133.781 26.6279 133.889 26.3496 134.104 26.125C134.318 25.8906 134.611 25.7734 134.982 25.7734C135.354 25.7734 135.646 25.8906 135.861 26.125C136.086 26.3496 136.198 26.6279 136.198 26.96C136.198 27.2822 136.086 27.5605 135.861 27.7949C135.646 28.0195 135.354 28.1318 134.982 28.1318C134.611 28.1318 134.318 28.0195 134.104 27.7949C133.889 27.5605 133.781 27.2822 133.781 26.96Z" fill="white"/>
<path d="M0.333333 35C0.333333 36.4728 1.52724 37.6667 3 37.6667C4.47276 37.6667 5.66667 36.4728 5.66667 35C5.66667 33.5272 4.47276 32.3333 3 32.3333C1.52724 32.3333 0.333333 33.5272 0.333333 35ZM260.333 35C260.333 36.4728 261.527 37.6667 263 37.6667C264.473 37.6667 265.667 36.4728 265.667 35C265.667 33.5272 264.473 32.3333 263 32.3333C261.527 32.3333 260.333 33.5272 260.333 35ZM3 35.5H263V34.5H3V35.5Z" fill="white"/>
</svg>
